BaskervilleNovus-Roman.ufo3
<glyph name="exclam" format="2">
  <advance width="180"/>
  <unicode hex="0021"/>
  <outline>
    <contour>
      <point x="36" y="54" type="qcurve" smooth="yes"/>
      <point x="36" y="76"/>
      <point x="68" y="108"/>
      <point x="90" y="108" type="qcurve" smooth="yes"/>
      <point x="112" y="108"/>
      <point x="144" y="76"/>
      <point x="144" y="54" type="qcurve" smooth="yes"/>
      <point x="144" y="32"/>
      <point x="112" y="0"/>
      <point x="90" y="0" type="qcurve" smooth="yes"/>
      <point x="68" y="0"/>
      <point x="36" y="32"/>
    </contour>
    <contour>
      <point x="36" y="640" type="qcurve" smooth="yes"/>
      <point x="36" y="725"/>
      <point x="90" y="725" type="qcurve" smooth="yes"/>
      <point x="144" y="725"/>
      <point x="144" y="640" type="qcurve" smooth="yes"/>
      <point x="144" y="604"/>
      <point x="108" y="322"/>
      <point x="108" y="197" type="qcurve" smooth="yes"/>
      <point x="108" y="189"/>
      <point x="98" y="179"/>
      <point x="90" y="179" type="qcurve" smooth="yes"/>
      <point x="82" y="179"/>
      <point x="72" y="189"/>
      <point x="72" y="197" type="qcurve" smooth="yes"/>
      <point x="72" y="322"/>
      <point x="36" y="604"/>
    </contour>
  </outline>
</glyph>
<glyph name="quotedbl" format="2">
  <advance width="362"/>
  <unicode hex="0022"/>
  <outline>
    <contour>
      <point x="220" y="676" type="line" smooth="yes"/>
      <point x="218" y="691.84"/>
      <point x="218" y="696" type="qcurve" smooth="yes"/>
      <point x="218" y="726"/>
      <point x="242" y="750"/>
      <point x="263" y="750" type="qcurve" smooth="yes"/>
      <point x="284" y="750"/>
      <point x="308" y="726"/>
      <point x="308" y="696" type="qcurve" smooth="yes"/>
      <point x="308" y="692"/>
      <point x="306" y="676" type="qcurve" smooth="yes"/>
      <point x="281" y="478" type="line" smooth="yes"/>
      <point x="278.728" y="460"/>
      <point x="263" y="460" type="qcurve" smooth="yes"/>
      <point x="247" y="460"/>
      <point x="245" y="478" type="qcurve" smooth="yes"/>
    </contour>
    <contour>
      <point x="56" y="676" type="line" smooth="yes"/>
      <point x="54" y="691.84"/>
      <point x="54" y="696" type="qcurve" smooth="yes"/>
      <point x="54" y="726"/>
      <point x="78" y="750"/>
      <point x="99" y="750" type="qcurve" smooth="yes"/>
      <point x="120" y="750"/>
      <point x="144" y="726"/>
      <point x="144" y="696" type="qcurve" smooth="yes"/>
      <point x="144" y="692"/>
      <point x="142" y="676" type="qcurve" smooth="yes"/>
      <point x="117" y="478" type="line" smooth="yes"/>
      <point x="114.728" y="460"/>
      <point x="99" y="460" type="qcurve" smooth="yes"/>
      <point x="83.2725" y="460"/>
      <point x="81" y="478" type="qcurve" smooth="yes"/>
    </contour>
  </outline>
</glyph>
<glyph name="numbersign" format="2">
  <advance width="793"/>
  <unicode hex="0023"/>
  <outline>
    <contour>
      <point x="757" y="451" type="qcurve" smooth="yes"/>
      <point x="754" y="433" type="line" smooth="yes"/>
      <point x="752" y="424"/>
      <point x="745" y="424" type="qcurve" smooth="yes"/>
      <point x="518" y="424" type="line"/>
      <point x="492" y="280" type="line"/>
      <point x="716" y="280" type="line" smooth="yes"/>
      <point x="725" y="280"/>
      <point x="724" y="271" type="qcurve" smooth="yes"/>
      <point x="722" y="253" type="line" smooth="yes"/>
      <point x="721" y="244"/>
      <point x="713" y="244" type="qcurve" smooth="yes"/>
      <point x="486" y="244" type="line"/>
      <point x="446" y="19" type="line" smooth="yes"/>
      <point x="444" y="10"/>
      <point x="437" y="10" type="qcurve" smooth="yes"/>
      <point x="418" y="10" type="line" smooth="yes"/>
      <point x="408" y="10"/>
      <point x="409" y="19" type="qcurve" smooth="yes"/>
      <point x="449" y="244" type="line"/>
      <point x="305" y="244" type="line"/>
      <point x="265" y="19" type="line" smooth="yes"/>
      <point x="263" y="10"/>
      <point x="256" y="10" type="qcurve" smooth="yes"/>
      <point x="237" y="10" type="line" smooth="yes"/>
      <point x="227" y="10"/>
      <point x="228" y="19" type="qcurve" smooth="yes"/>
      <point x="268" y="244" type="line"/>
      <point x="44" y="244" type="line" smooth="yes"/>
      <point x="35" y="244"/>
      <point x="36" y="253" type="qcurve" smooth="yes"/>
      <point x="38" y="271" type="line" smooth="yes"/>
      <point x="39" y="280"/>
      <point x="48" y="280" type="qcurve" smooth="yes"/>
      <point x="274" y="280" type="line"/>
      <point x="300" y="424" type="line"/>
      <point x="76" y="424" type="line" smooth="yes"/>
      <point x="66" y="424"/>
      <point x="68" y="433" type="qcurve" smooth="yes"/>
      <point x="71" y="451" type="line" smooth="yes"/>
      <point x="72" y="460"/>
      <point x="81" y="460" type="qcurve" smooth="yes"/>
      <point x="307" y="460" type="line"/>
      <point x="347" y="685" type="line" smooth="yes"/>
      <point x="349" y="694"/>
      <point x="356" y="694" type="qcurve" smooth="yes"/>
      <point x="375" y="694" type="line" smooth="yes"/>
      <point x="385" y="694"/>
      <point x="384" y="685" type="qcurve" smooth="yes"/>
      <point x="344" y="460" type="line"/>
      <point x="488" y="460" type="line"/>
      <point x="528" y="685" type="line" smooth="yes"/>
      <point x="530" y="694"/>
      <point x="538" y="694" type="qcurve" smooth="yes"/>
      <point x="556" y="694" type="line" smooth="yes"/>
      <point x="566" y="694"/>
      <point x="565" y="685" type="qcurve" smooth="yes"/>
      <point x="525" y="460" type="line"/>
      <point x="749" y="460" type="line" smooth="yes"/>
      <point x="758" y="460"/>
    </contour>
    <contour>
      <point x="455" y="280" type="line"/>
      <point x="481" y="424" type="line"/>
      <point x="337" y="424" type="line"/>
      <point x="311" y="280" type="line"/>
    </contour>
  </outline>
</glyph>
<glyph name="dollar" format="2">
  <advance width="558"/>
  <unicode hex="0024"/>
  <outline>
    <contour>
      <point x="212" y="361" type="line" smooth="yes"/>
      <point x="127" y="400"/>
      <point x="92" y="436" type="qcurve" smooth="yes"/>
      <point x="58" y="471"/>
      <point x="58" y="530" type="qcurve" smooth="yes"/>
      <point x="58" y="605"/>
      <point x="123" y="655" type="qcurve" smooth="yes"/>
      <point x="182" y="700"/>
      <point x="262" y="705" type="qcurve"/>
      <point x="262" y="787" type="line" smooth="yes"/>
      <point x="262" y="796"/>
      <point x="271" y="796" type="qcurve" smooth="yes"/>
      <point x="289" y="796" type="line" smooth="yes"/>
      <point x="298" y="796"/>
      <point x="298" y="787" type="qcurve" smooth="yes"/>
      <point x="298" y="705" type="line"/>
      <point x="391" y="702"/>
      <point x="446" y="671" type="qcurve" smooth="yes"/>
      <point x="506" y="637"/>
      <point x="506" y="583" type="qcurve" smooth="yes"/>
      <point x="506" y="564"/>
      <point x="480" y="538"/>
      <point x="442" y="538"/>
      <point x="416" y="564"/>
      <point x="416" y="580" type="qcurve" smooth="yes"/>
      <point x="416" y="592"/>
      <point x="426" y="610"/>
      <point x="426" y="620" type="qcurve" smooth="yes"/>
      <point x="426" y="640"/>
      <point x="397" y="655" type="qcurve" smooth="yes"/>
      <point x="371" y="668"/>
      <point x="298" y="669" type="qcurve"/>
      <point x="298" y="420" type="line"/>
      <point x="357" y="393" type="line" smooth="yes"/>
      <point x="451" y="350"/>
      <point x="487" y="304" type="qcurve" smooth="yes"/>
      <point x="522" y="259"/>
      <point x="522" y="195" type="qcurve" smooth="yes"/>
      <point x="522" y="106"/>
      <point x="460" y="53" type="qcurve" smooth="yes"/>
      <point x="403" y="4"/>
      <point x="298" y="0" type="qcurve"/>
      <point x="298" y="-150" type="line" smooth="yes"/>
      <point x="298" y="-159"/>
      <point x="289" y="-159" type="qcurve" smooth="yes"/>
      <point x="270" y="-159" type="line" smooth="yes"/>
      <point x="261" y="-159"/>
      <point x="261" y="-150" type="qcurve" smooth="yes"/>
      <point x="261" y="0" type="line"/>
      <point x="153" y="2"/>
      <point x="36" y="68"/>
      <point x="36" y="119" type="qcurve" smooth="yes"/>
      <point x="36" y="136"/>
      <point x="62" y="164"/>
      <point x="81" y="164" type="qcurve" smooth="yes"/>
      <point x="101" y="164"/>
      <point x="113" y="153" type="qcurve" smooth="yes"/>
      <point x="127" y="140"/>
      <point x="127" y="122" type="qcurve" smooth="yes"/>
      <point x="127" y="112"/>
      <point x="125" y="96"/>
      <point x="125" y="88" type="qcurve" smooth="yes"/>
      <point x="125" y="62"/>
      <point x="203" y="37"/>
      <point x="261" y="36" type="qcurve"/>
      <point x="262" y="338" type="line"/>
    </contour>
    <contour>
      <point x="298" y="37" type="line"/>
      <point x="370" y="40"/>
      <point x="408" y="75" type="qcurve" smooth="yes"/>
      <point x="452" y="116"/>
      <point x="452" y="170" type="qcurve" smooth="yes"/>
      <point x="452" y="249"/>
      <point x="356" y="294" type="qcurve" smooth="yes"/>
      <point x="298" y="321" type="line"/>
    </contour>
    <contour>
      <point x="262" y="669" type="line"/>
      <point x="192" y="665"/>
      <point x="161" y="635" type="qcurve" smooth="yes"/>
      <point x="126" y="601"/>
      <point x="126" y="558" type="qcurve" smooth="yes"/>
      <point x="126" y="525"/>
      <point x="172" y="479"/>
      <point x="213" y="460" type="qcurve" smooth="yes"/>
      <point x="262" y="437" type="line"/>
    </contour>
  </outline>
</glyph>
<glyph name="ampersand" format="2">
  <advance width="733"/>
  <unicode hex="0026"/>
  <outline>
    <contour>
      <point x="607" y="638" type="line"/>
      <point x="624" y="620" type="line"/>
      <point x="593" y="589" type="line"/>
      <point x="628" y="554" type="line"/>
      <point x="612" y="538" type="line"/>
      <point x="577" y="573" type="line"/>
      <point x="541" y="537" type="line"/>
      <point x="523" y="554" type="line"/>
      <point x="560" y="591" type="line"/>
      <point x="526" y="625" type="line"/>
      <point x="542" y="641" type="line"/>
      <point x="576" y="607" type="line"/>
    </contour>
    <contour>
      <point x="122" y="505" type="curve" smooth="yes"/>
      <point x="122" y="572.333"/>
      <point x="138.667" y="620"/>
      <point x="172" y="648" type="curve" smooth="yes"/>
      <point x="206" y="676.667"/>
      <point x="242.333" y="690.667"/>
      <point x="281" y="690" type="curve" smooth="yes"/>
      <point x="320.333" y="690"/>
      <point x="353" y="677.667"/>
      <point x="379" y="653" type="curve" smooth="yes"/>
      <point x="405" y="628.333"/>
      <point x="418" y="598.333"/>
      <point x="418" y="563" type="curve" smooth="yes"/>
      <point x="418" y="528.333"/>
      <point x="408.667" y="495.667"/>
      <point x="390" y="465" type="curve" smooth="yes"/>
      <point x="366" y="425"/>
      <point x="331.333" y="387"/>
      <point x="286" y="351" type="curve"/>
      <point x="328.667" y="291.667"/>
      <point x="376" y="236.333"/>
      <point x="428" y="185" type="curve"/>
      <point x="453.333" y="222.333"/>
      <point x="473.667" y="256.667"/>
      <point x="489" y="288" type="curve" smooth="yes"/>
      <point x="505" y="319.333"/>
      <point x="523.333" y="347.667"/>
      <point x="544" y="373" type="curve" smooth="yes"/>
      <point x="564" y="397.667"/>
      <point x="590" y="410"/>
      <point x="622" y="410" type="curve" smooth="yes"/>
      <point x="641.333" y="410"/>
      <point x="658.667" y="403.667"/>
      <point x="674" y="391" type="curve" smooth="yes"/>
      <point x="690" y="378.333"/>
      <point x="698" y="362.333"/>
      <point x="698" y="343" type="curve" smooth="yes"/>
      <point x="698" y="325"/>
      <point x="693.333" y="311"/>
      <point x="684" y="301" type="curve" smooth="yes"/>
      <point x="673.333" y="289.667"/>
      <point x="659" y="284"/>
      <point x="641" y="284" type="curve" smooth="yes"/>
      <point x="629" y="284"/>
      <point x="618.5" y="288.333"/>
      <point x="609.5" y="297" type="curve" smooth="yes"/>
      <point x="600.5" y="305.667"/>
      <point x="596" y="317"/>
      <point x="596" y="331" type="curve" smooth="yes"/>
      <point x="596" y="335"/>
      <point x="596.667" y="338.667"/>
      <point x="598" y="342" type="curve" smooth="yes"/>
      <point x="599.333" y="345.333"/>
      <point x="600" y="348.667"/>
      <point x="600" y="352" type="curve" smooth="yes"/>
      <point x="600" y="355.333"/>
      <point x="598.667" y="358.333"/>
      <point x="596" y="361" type="curve" smooth="yes"/>
      <point x="593.333" y="363.667"/>
      <point x="590.333" y="365"/>
      <point x="587" y="365" type="curve" smooth="yes"/>
      <point x="567.667" y="365"/>
      <point x="546" y="340"/>
      <point x="522" y="290" type="curve" smooth="yes"/>
      <point x="502" y="249.333"/>
      <point x="478.333" y="207.667"/>
      <point x="451" y="165" type="curve"/>
      <point x="509" y="85.6667"/>
      <point x="562.667" y="46"/>
      <point x="612" y="46" type="curve" smooth="yes"/>
      <point x="640.667" y="46"/>
      <point x="666.667" y="60.3333"/>
      <point x="690" y="89" type="curve" smooth="yes"/>
      <point x="693.333" y="93"/>
      <point x="697" y="94.6667"/>
      <point x="701" y="94" type="curve" smooth="yes"/>
      <point x="705" y="94"/>
      <point x="708.167" y="92.8333"/>
      <point x="710.5" y="90.5" type="curve" smooth="yes"/>
      <point x="712.833" y="88.1667"/>
      <point x="714" y="85.3333"/>
      <point x="714" y="82" type="curve" smooth="yes"/>
      <point x="714" y="77.3333"/>
      <point x="712.667" y="73.3333"/>
      <point x="710" y="70" type="curve" smooth="yes"/>
      <point x="674.667" y="17.3333"/>
      <point x="625.667" y="-9.33333"/>
      <point x="563" y="-10" type="curve" smooth="yes"/>
      <point x="497.667" y="-10"/>
      <point x="439" y="20.3333"/>
      <point x="387" y="81" type="curve"/>
      <point x="324.333" y="14.3333"/>
      <point x="255.667" y="-19"/>
      <point x="181" y="-19" type="curve" smooth="yes"/>
      <point x="135" y="-19"/>
      <point x="98.1667" y="-6.33333"/>
      <point x="70.5" y="19" type="curve" smooth="yes"/>
      <point x="42.8333" y="44.3333"/>
      <point x="29" y="77.3333"/>
      <point x="29" y="118" type="curve" smooth="yes"/>
      <point x="29" y="158.667"/>
      <point x="41" y="194.333"/>
      <point x="65" y="225" type="curve" smooth="yes"/>
      <point x="89" y="255.667"/>
      <point x="130.667" y="288.667"/>
      <point x="190" y="324" type="curve"/>
      <point x="144.667" y="399.333"/>
      <point x="122" y="459.667"/>
    </contour>
    <contour>
      <point x="266" y="377" type="curve"/>
      <point x="303.333" y="413"/>
      <point x="327.333" y="443.667"/>
      <point x="338" y="469" type="curve" smooth="yes"/>
      <point x="348" y="493"/>
      <point x="353" y="516"/>
      <point x="353" y="538" type="curve" smooth="yes"/>
      <point x="352.333" y="584.667"/>
      <point x="344.667" y="617.333"/>
      <point x="330" y="636" type="curve" smooth="yes"/>
      <point x="314" y="655.333"/>
      <point x="294.333" y="665"/>
      <point x="271" y="665" type="curve" smooth="yes"/>
      <point x="241" y="665"/>
      <point x="219.333" y="656"/>
      <point x="206" y="638" type="curve" smooth="yes"/>
      <point x="190.667" y="618"/>
      <point x="183" y="593"/>
      <point x="183" y="563" type="curve" smooth="yes"/>
      <point x="183" y="509"/>
      <point x="210.667" y="447"/>
    </contour>
    <contour>
      <point x="209" y="296" type="curve"/>
      <point x="149.667" y="252.667"/>
      <point x="120" y="207"/>
      <point x="120" y="159" type="curve" smooth="yes"/>
      <point x="120" y="127.667"/>
      <point x="129.5" y="98.8333"/>
      <point x="148.5" y="72.5" type="curve" smooth="yes"/>
      <point x="167.5" y="46.1667"/>
      <point x="196" y="33"/>
      <point x="234" y="33" type="curve" smooth="yes"/>
      <point x="272" y="33"/>
      <point x="316" y="57"/>
      <point x="366" y="105" type="curve"/>
      <point x="308" y="161.667"/>
      <point x="255.667" y="225.333"/>
    </contour>
  </outline>
</glyph>
<glyph name="quotesingle" format="2">
  <advance width="188"/>
  <unicode hex="0027"/>
  <outline>
    <contour>
      <point x="53" y="644" type="line" smooth="yes"/>
      <point x="51.6667" y="654"/>
      <point x="51" y="660.333"/>
      <point x="51" y="663" type="curve" smooth="yes"/>
      <point x="51" y="682.333"/>
      <point x="54.8333" y="695.667"/>
      <point x="62.5" y="703" type="curve" smooth="yes"/>
      <point x="70.1667" y="710.333"/>
      <point x="80.6667" y="714"/>
      <point x="94" y="714" type="curve" smooth="yes"/>
      <point x="107.333" y="714"/>
      <point x="117.833" y="710.167"/>
      <point x="125.5" y="702.5" type="curve" smooth="yes"/>
      <point x="133.167" y="694.833"/>
      <point x="137" y="681.667"/>
      <point x="137" y="663" type="curve" smooth="yes"/>
      <point x="137" y="660.333"/>
      <point x="136.333" y="654"/>
      <point x="135" y="644" type="curve" smooth="yes"/>
      <point x="111" y="455" type="line" smooth="yes"/>
      <point x="109.667" y="443.667"/>
      <point x="104" y="438"/>
      <point x="94" y="438" type="curve" smooth="yes"/>
      <point x="84" y="438"/>
      <point x="78.3333" y="443.667"/>
      <point x="77" y="455" type="curve" smooth="yes"/>
    </contour>
  </outline>
</glyph>
<glyph name="parenleft" format="2">
  <advance width="325"/>
  <unicode hex="0028"/>
  <outline>
    <contour>
      <point x="347.112" y="669.882" type="line"/>
      <point x="365.497" y="651.497" type="line"/>
      <point x="332.97" y="618.97" type="line"/>
      <point x="369.739" y="582.2" type="line"/>
      <point x="352.77" y="565.229" type="line"/>
      <point x="316" y="602" type="line"/>
      <point x="277.815" y="563.815" type="line"/>
      <point x="259.431" y="582.2" type="line"/>
      <point x="297.615" y="620.385" type="line"/>
      <point x="262.26" y="655.739" type="line"/>
      <point x="279.23" y="672.71" type="line"/>
      <point x="314.585" y="637.354" type="line"/>
    </contour>
    <contour>
      <point x="135" y="288" type="qcurve" smooth="yes"/>
      <point x="135" y="138"/>
      <point x="222" y="-72"/>
      <point x="286" y="-152" type="qcurve" smooth="yes"/>
      <point x="290" y="-157"/>
      <point x="290" y="-170"/>
      <point x="280" y="-179"/>
      <point x="272" y="-179" type="qcurve" smooth="yes"/>
      <point x="267" y="-179"/>
      <point x="261" y="-173" type="qcurve" smooth="yes"/>
      <point x="159" y="-73"/>
      <point x="45" y="151"/>
      <point x="45" y="288" type="qcurve" smooth="yes"/>
      <point x="45" y="425"/>
      <point x="164" y="652"/>
      <point x="261" y="749" type="qcurve" smooth="yes"/>
      <point x="267" y="755"/>
      <point x="272" y="755" type="qcurve" smooth="yes"/>
      <point x="279" y="755"/>
      <point x="290" y="746"/>
      <point x="290" y="739" type="qcurve" smooth="yes"/>
      <point x="290" y="733"/>
      <point x="286" y="728" type="qcurve" smooth="yes"/>
      <point x="222" y="648"/>
      <point x="135" y="438"/>
    </contour>
  </outline>
</glyph>
<glyph name="parenright" format="2">
  <advance width="335"/>
  <unicode hex="0029"/>
  <outline>
    <contour>
      <point x="281" y="288" type="qcurve" smooth="yes"/>
      <point x="280" y="165"/>
      <point x="221" y="37" type="qcurve" smooth="yes"/>
      <point x="172" y="-69"/>
      <point x="67" y="-174" type="qcurve" smooth="yes"/>
      <point x="61" y="-180"/>
      <point x="54" y="-180" type="qcurve" smooth="yes"/>
      <point x="46" y="-180"/>
      <point x="36" y="-170"/>
      <point x="36" y="-163" type="qcurve" smooth="yes"/>
      <point x="36" y="-157"/>
      <point x="42" y="-150" type="qcurve" smooth="yes"/>
      <point x="98" y="-85"/>
      <point x="146" y="31" type="qcurve" smooth="yes"/>
      <point x="191" y="140"/>
      <point x="191" y="288" type="qcurve" smooth="yes"/>
      <point x="191" y="436"/>
      <point x="101" y="654"/>
      <point x="42" y="726" type="qcurve" smooth="yes"/>
      <point x="36" y="733"/>
      <point x="36" y="739" type="qcurve" smooth="yes"/>
      <point x="36" y="746"/>
      <point x="46" y="756"/>
      <point x="54" y="756" type="qcurve" smooth="yes"/>
      <point x="61" y="756"/>
      <point x="67" y="750" type="qcurve" smooth="yes"/>
      <point x="172" y="645"/>
      <point x="221" y="539" type="qcurve" smooth="yes"/>
      <point x="280" y="411"/>
    </contour>
  </outline>
</glyph>
<glyph name="asterisk" format="2">
  <advance width="476"/>
  <unicode hex="002A"/>
  <outline>
    <contour>
      <point x="199" y="511" type="line" smooth="yes"/>
      <point x="151" y="540"/>
      <point x="111" y="541" type="qcurve" smooth="yes"/>
      <point x="36" y="543"/>
      <point x="36" y="591" type="qcurve" smooth="yes"/>
      <point x="36" y="610"/>
      <point x="62" y="635"/>
      <point x="82" y="635" type="qcurve" smooth="yes"/>
      <point x="109" y="635"/>
      <point x="138" y="588" type="qcurve" smooth="yes"/>
      <point x="157" y="557"/>
      <point x="208" y="527" type="qcurve" smooth="yes"/>
      <point x="229" y="515" type="line"/>
      <point x="229" y="539" type="line" smooth="yes"/>
      <point x="229" y="598"/>
      <point x="193" y="662"/>
      <point x="193" y="680" type="qcurve" smooth="yes"/>
      <point x="193" y="699"/>
      <point x="219" y="725"/>
      <point x="257" y="725"/>
      <point x="283" y="699"/>
      <point x="283" y="680" type="qcurve" smooth="yes"/>
      <point x="283" y="662"/>
      <point x="247" y="598"/>
      <point x="247" y="539" type="qcurve" smooth="yes"/>
      <point x="247" y="515" type="line"/>
      <point x="268" y="527" type="line" smooth="yes"/>
      <point x="319" y="557"/>
      <point x="338" y="588" type="qcurve" smooth="yes"/>
      <point x="367" y="635"/>
      <point x="394" y="635" type="qcurve" smooth="yes"/>
      <point x="414" y="635"/>
      <point x="440" y="610"/>
      <point x="440" y="591" type="qcurve" smooth="yes"/>
      <point x="440" y="543"/>
      <point x="365" y="541" type="qcurve" smooth="yes"/>
      <point x="325" y="540"/>
      <point x="277" y="511" type="qcurve" smooth="yes"/>
      <point x="256" y="499" type="line"/>
      <point x="277" y="487" type="line" smooth="yes"/>
      <point x="325" y="458"/>
      <point x="365" y="457" type="qcurve" smooth="yes"/>
      <point x="440" y="455"/>
      <point x="440" y="407" type="qcurve" smooth="yes"/>
      <point x="440" y="388"/>
      <point x="414" y="363"/>
      <point x="394" y="363" type="qcurve" smooth="yes"/>
      <point x="367" y="363"/>
      <point x="338" y="410" type="qcurve" smooth="yes"/>
      <point x="319" y="441"/>
      <point x="268" y="471" type="qcurve" smooth="yes"/>
      <point x="247" y="483" type="line"/>
      <point x="247" y="459" type="line" smooth="yes"/>
      <point x="247" y="400"/>
      <point x="283" y="336"/>
      <point x="283" y="318" type="qcurve" smooth="yes"/>
      <point x="283" y="299"/>
      <point x="257" y="273"/>
      <point x="219" y="273"/>
      <point x="193" y="299"/>
      <point x="193" y="318" type="qcurve" smooth="yes"/>
      <point x="193" y="336"/>
      <point x="229" y="400"/>
      <point x="229" y="459" type="qcurve" smooth="yes"/>
      <point x="229" y="483" type="line"/>
      <point x="208" y="471" type="line" smooth="yes"/>
      <point x="157" y="441"/>
      <point x="138" y="410" type="qcurve" smooth="yes"/>
      <point x="109" y="363"/>
      <point x="82" y="363" type="qcurve" smooth="yes"/>
      <point x="62" y="363"/>
      <point x="36" y="388"/>
      <point x="36" y="407" type="qcurve" smooth="yes"/>
      <point x="36" y="455"/>
      <point x="111" y="457" type="qcurve" smooth="yes"/>
      <point x="151" y="458"/>
      <point x="199" y="487" type="qcurve" smooth="yes"/>
      <point x="220" y="499" type="line"/>
    </contour>
  </outline>
</glyph>
<glyph name="plus" format="2">
  <advance width="616"/>
  <unicode hex="002B"/>
  <outline>
    <contour>
      <point x="47.291" y="744.201" type="line"/>
      <point x="68.5039" y="765.414" type="line"/>
      <point x="82.6465" y="751.272" type="line"/>
      <point x="61.4326" y="730.06" type="line"/>
      <point x="82.6465" y="708.846" type="line"/>
      <point x="68.5039" y="694.704" type="line"/>
      <point x="47.291" y="715.917" type="line"/>
      <point x="26.0771" y="694.704" type="line"/>
      <point x="11.9355" y="708.846" type="line"/>
      <point x="33.1484" y="730.06" type="line"/>
      <point x="11.9355" y="751.272" type="line"/>
      <point x="26.0771" y="765.414" type="line"/>
    </contour>
    <contour>
      <point x="34" y="327" type="curve" smooth="yes"/>
      <point x="34" y="344" type="line" smooth="yes"/>
      <point x="34" y="350"/>
      <point x="37" y="352.667"/>
      <point x="43" y="352" type="curve" smooth="yes"/>
      <point x="291" y="352" type="line"/>
      <point x="291" y="601" type="line" smooth="yes"/>
      <point x="291" y="607"/>
      <point x="294" y="610"/>
      <point x="300" y="610" type="curve" smooth="yes"/>
      <point x="317" y="610" type="line" smooth="yes"/>
      <point x="323" y="610"/>
      <point x="326" y="607"/>
      <point x="326" y="601" type="curve" smooth="yes"/>
      <point x="326" y="352" type="line"/>
      <point x="573" y="352" type="line" smooth="yes"/>
      <point x="579" y="352"/>
      <point x="582" y="349.333"/>
      <point x="582" y="344" type="curve" smooth="yes"/>
      <point x="582" y="327" type="line" smooth="yes"/>
      <point x="582" y="321"/>
      <point x="579" y="318"/>
      <point x="573" y="318" type="curve" smooth="yes"/>
      <point x="326" y="318" type="line"/>
      <point x="326" y="70" type="line" smooth="yes"/>
      <point x="326" y="64"/>
      <point x="323" y="61"/>
      <point x="317" y="61" type="curve" smooth="yes"/>
      <point x="300" y="61" type="line" smooth="yes"/>
      <point x="294" y="61"/>
      <point x="291" y="64"/>
      <point x="291" y="70" type="curve" smooth="yes"/>
      <point x="291" y="318" type="line"/>
      <point x="43" y="318" type="line" smooth="yes"/>
      <point x="37" y="318"/>
      <point x="34" y="321"/>
    </contour>
  </outline>
</glyph>
<glyph name="comma" format="2">
  <advance width="177"/>
  <unicode hex="002C"/>
  <outline>
    <contour>
      <point x="32" y="408" type="curve" smooth="yes"/>
      <point x="32" y="435"/>
      <point x="54" y="456"/>
      <point x="80" y="456" type="curve" smooth="yes"/>
      <point x="106" y="456"/>
      <point x="128" y="434"/>
      <point x="128" y="408" type="curve" smooth="yes"/>
      <point x="128" y="382"/>
      <point x="106" y="360"/>
      <point x="80" y="360" type="curve" smooth="yes"/>
      <point x="54" y="360"/>
      <point x="32" y="381"/>
    </contour>
    <contour>
      <point x="19" y="-126" type="curve" smooth="yes"/>
      <point x="84" y="-100"/>
      <point x="106" y="-48"/>
      <point x="106" y="-11" type="curve" smooth="yes"/>
      <point x="106" y="-4"/>
      <point x="105" y="2"/>
      <point x="104" y="7" type="curve"/>
      <point x="97" y="3"/>
      <point x="89" y="0"/>
      <point x="80" y="0" type="curve" smooth="yes"/>
      <point x="54" y="0"/>
      <point x="32" y="21"/>
      <point x="32" y="48" type="curve" smooth="yes"/>
      <point x="32" y="75"/>
      <point x="54" y="96"/>
      <point x="80" y="96" type="curve" smooth="yes"/>
      <point x="100" y="96"/>
      <point x="117.07" y="89.9114"/>
      <point x="128" y="76" type="curve" smooth="yes"/>
      <point x="139" y="62"/>
      <point x="145" y="41"/>
      <point x="145" y="13" type="curve" smooth="yes"/>
      <point x="145" y="-57"/>
      <point x="106.905" y="-112.047"/>
      <point x="31" y="-150" type="curve" smooth="yes"/>
      <point x="23" y="-154"/>
      <point x="13.6741" y="-152.131"/>
      <point x="11" y="-145" type="curve" smooth="yes"/>
      <point x="8" y="-137"/>
      <point x="11.0671" y="-129.173"/>
    </contour>
  </outline>
</glyph>
<glyph name="hyphen" format="2">
  <advance width="330"/>
  <unicode hex="002D"/>
  <outline>
    <contour>
      <point x="47.291" y="744.201" type="line"/>
      <point x="68.5039" y="765.414" type="line"/>
      <point x="82.6465" y="751.272" type="line"/>
      <point x="61.4326" y="730.06" type="line"/>
      <point x="82.6465" y="708.846" type="line"/>
      <point x="68.5039" y="694.704" type="line"/>
      <point x="47.291" y="715.917" type="line"/>
      <point x="26.0771" y="694.704" type="line"/>
      <point x="11.9355" y="708.846" type="line"/>
      <point x="33.1484" y="730.06" type="line"/>
      <point x="11.9355" y="751.272" type="line"/>
      <point x="26.0771" y="765.414" type="line"/>
    </contour>
    <contour>
      <point x="34" y="327" type="curve" smooth="yes"/>
      <point x="34" y="344" type="line" smooth="yes"/>
      <point x="34" y="350"/>
      <point x="37" y="352.667"/>
      <point x="43" y="352" type="curve" smooth="yes"/>
      <point x="288" y="352" type="line" smooth="yes"/>
      <point x="294" y="352"/>
      <point x="296.667" y="349.333"/>
      <point x="296" y="344" type="curve" smooth="yes"/>
      <point x="296" y="327" type="line" smooth="yes"/>
      <point x="296" y="321"/>
      <point x="293.333" y="318"/>
      <point x="288" y="318" type="curve" smooth="yes"/>
      <point x="43" y="318" type="line" smooth="yes"/>
      <point x="37" y="318"/>
      <point x="34" y="321"/>
    </contour>
  </outline>
</glyph>
<glyph name="period" format="2">
  <advance width="137"/>
  <unicode hex="002E"/>
  <outline>
    <contour>
      <point x="17" y="51" type="curve" smooth="yes"/>
      <point x="17" y="65"/>
      <point x="22.1667" y="77.1667"/>
      <point x="32.5" y="87.5" type="curve" smooth="yes"/>
      <point x="42.8333" y="97.8333"/>
      <point x="55" y="103"/>
      <point x="69" y="103" type="curve" smooth="yes"/>
      <point x="83" y="103"/>
      <point x="95" y="97.8333"/>
      <point x="105" y="87.5" type="curve" smooth="yes"/>
      <point x="115" y="77.1667"/>
      <point x="120" y="65"/>
      <point x="120" y="51" type="curve" smooth="yes"/>
      <point x="120" y="37"/>
      <point x="115" y="25"/>
      <point x="105" y="15" type="curve" smooth="yes"/>
      <point x="95" y="5"/>
      <point x="83" y="0"/>
      <point x="69" y="0" type="curve" smooth="yes"/>
      <point x="55" y="0"/>
      <point x="42.8333" y="5"/>
      <point x="32.5" y="15" type="curve" smooth="yes"/>
      <point x="22.1667" y="25"/>
      <point x="17" y="37"/>
    </contour>
  </outline>
</glyph>
<glyph name="slash" format="2">
  <advance width="506"/>
  <unicode hex="002F"/>
  <outline>
    <contour>
      <point x="44" y="-29" type="line" smooth="yes"/>
      <point x="40" y="-35.6667"/>
      <point x="35" y="-38.6667"/>
      <point x="29" y="-38" type="curve" smooth="yes"/>
      <point x="6" y="-38" type="line" smooth="yes"/>
      <point x="2" y="-38"/>
      <point x="0" y="-36.3333"/>
      <point x="0" y="-33" type="curve" smooth="yes"/>
      <point x="0" y="-31.6667"/>
      <point x="0.666667" y="-30.3333"/>
      <point x="2" y="-29" type="curve" smooth="yes"/>
      <point x="463" y="681" type="line" smooth="yes"/>
      <point x="467" y="687.667"/>
      <point x="472" y="690.667"/>
      <point x="478" y="690" type="curve" smooth="yes"/>
      <point x="501" y="690" type="line" smooth="yes"/>
      <point x="505" y="690"/>
      <point x="507" y="688.667"/>
      <point x="507" y="686" type="curve" smooth="yes"/>
      <point x="507" y="684.667"/>
      <point x="506.333" y="683"/>
      <point x="505" y="681" type="curve" smooth="yes"/>
    </contour>
  </outline>
</glyph>
<glyph name="zero" format="2">
  <advance width="566"/>
  <unicode hex="0030"/>
  <outline>
    <contour>
      <point x="280" y="723" type="qcurve" smooth="yes"/>
      <point x="390" y="723"/>
      <point x="514" y="505"/>
      <point x="514" y="360" type="qcurve" smooth="yes"/>
      <point x="514" y="215"/>
      <point x="390" y="-18"/>
      <point x="280" y="-18" type="qcurve" smooth="yes"/>
      <point x="170" y="-18"/>
      <point x="46" y="215"/>
      <point x="46" y="360" type="qcurve" smooth="yes"/>
      <point x="46" y="505"/>
      <point x="170" y="723"/>
    </contour>
    <contour>
      <point x="280" y="687" type="qcurve" smooth="yes"/>
      <point x="215" y="687"/>
      <point x="154" y="535"/>
      <point x="154" y="360" type="qcurve" smooth="yes"/>
      <point x="154" y="185"/>
      <point x="215" y="18"/>
      <point x="280" y="18" type="qcurve" smooth="yes"/>
      <point x="345" y="18"/>
      <point x="406" y="160"/>
      <point x="406" y="360" type="qcurve" smooth="yes"/>
      <point x="406" y="560"/>
      <point x="345" y="687"/>
    </contour>
  </outline>
</glyph>
<glyph name="one" format="2">
  <advance width="357"/>
  <unicode hex="0031"/>
  <outline>
    <contour>
      <point x="139" y="120" type="curve" smooth="yes"/>
      <point x="139" y="581" type="line" smooth="yes"/>
      <point x="139" y="605"/>
      <point x="121" y="623"/>
      <point x="97" y="623" type="curve" smooth="yes"/>
      <point x="51" y="623" type="line" smooth="yes"/>
      <point x="42" y="623"/>
      <point x="35" y="630"/>
      <point x="35" y="639" type="curve" smooth="yes"/>
      <point x="35" y="647"/>
      <point x="39" y="654"/>
      <point x="49" y="655" type="curve" smooth="yes"/>
      <point x="106" y="662"/>
      <point x="177" y="681"/>
      <point x="197" y="688" type="curve" smooth="yes"/>
      <point x="209" y="692"/>
      <point x="219" y="683"/>
      <point x="219" y="673" type="curve" smooth="yes"/>
      <point x="219" y="120" type="line" smooth="yes"/>
      <point x="219" y="60"/>
      <point x="221" y="33"/>
      <point x="261" y="32" type="curve" smooth="yes"/>
      <point x="309" y="31" type="line" smooth="yes"/>
      <point x="318" y="31"/>
      <point x="325" y="25"/>
      <point x="325" y="15" type="curve" smooth="yes"/>
      <point x="325" y="5"/>
      <point x="318" y="-1"/>
      <point x="309" y="-1" type="curve" smooth="yes"/>
      <point x="276" y="-1"/>
      <point x="229" y="0"/>
      <point x="187" y="0" type="curve" smooth="yes"/>
      <point x="171" y="0" type="line" smooth="yes"/>
      <point x="129" y="0"/>
      <point x="81" y="-1"/>
      <point x="48" y="-1" type="curve" smooth="yes"/>
      <point x="39" y="-1"/>
      <point x="32" y="5"/>
      <point x="32" y="15" type="curve" smooth="yes"/>
      <point x="32" y="25"/>
      <point x="39" y="31"/>
      <point x="48" y="31" type="curve" smooth="yes"/>
      <point x="97" y="32" type="line" smooth="yes"/>
      <point x="136" y="33"/>
      <point x="139" y="60"/>
    </contour>
  </outline>
</glyph>
<glyph name="colon" format="2">
  <advance width="144"/>
  <unicode hex="003A"/>
  <outline>
    <contour>
      <point x="18" y="408" type="qcurve" smooth="yes"/>
      <point x="18" y="430"/>
      <point x="50" y="462"/>
      <point x="72" y="462" type="qcurve" smooth="yes"/>
      <point x="94" y="462"/>
      <point x="126" y="430"/>
      <point x="126" y="408" type="qcurve" smooth="yes"/>
      <point x="126" y="386"/>
      <point x="94" y="354"/>
      <point x="72" y="354" type="qcurve" smooth="yes"/>
      <point x="50" y="354"/>
      <point x="18" y="386"/>
    </contour>
    <contour>
      <point x="18" y="54" type="qcurve" smooth="yes"/>
      <point x="18" y="76"/>
      <point x="50" y="108"/>
      <point x="72" y="108" type="qcurve" smooth="yes"/>
      <point x="94" y="108"/>
      <point x="126" y="76"/>
      <point x="126" y="54" type="qcurve" smooth="yes"/>
      <point x="126" y="32"/>
      <point x="94" y="0"/>
      <point x="72" y="0" type="qcurve" smooth="yes"/>
      <point x="50" y="0"/>
      <point x="18" y="32"/>
    </contour>
  </outline>
</glyph>
<glyph name="semicolon" format="2">
  <advance width="216"/>
  <unicode hex="003B"/>
  <outline>
    <contour>
      <point x="53" y="408" type="qcurve" smooth="yes"/>
      <point x="53" y="430"/>
      <point x="85" y="462"/>
      <point x="107" y="462" type="qcurve" smooth="yes"/>
      <point x="129" y="462"/>
      <point x="161" y="430"/>
      <point x="161" y="408" type="qcurve" smooth="yes"/>
      <point x="161" y="386"/>
      <point x="129" y="354"/>
      <point x="107" y="354" type="qcurve" smooth="yes"/>
      <point x="85" y="354"/>
      <point x="53" y="386"/>
    </contour>
    <contour>
      <point x="45" y="-127" type="qcurve" smooth="yes"/>
      <point x="139" y="-62"/>
      <point x="139" y="-4" type="qcurve" smooth="yes"/>
      <point x="139" y="6"/>
      <point x="138" y="13" type="qcurve"/>
      <point x="127" y="0"/>
      <point x="107" y="0" type="qcurve" smooth="yes"/>
      <point x="85" y="0"/>
      <point x="53" y="31"/>
      <point x="53" y="54" type="qcurve" smooth="yes"/>
      <point x="53" y="77"/>
      <point x="85" y="108"/>
      <point x="111" y="108" type="qcurve" smooth="yes"/>
      <point x="142" y="108"/>
      <point x="180" y="65"/>
      <point x="180" y="21" type="qcurve" smooth="yes"/>
      <point x="180" y="-89"/>
      <point x="60" y="-150" type="qcurve" smooth="yes"/>
      <point x="54" y="-153"/>
      <point x="50" y="-153" type="qcurve" smooth="yes"/>
      <point x="39" y="-153"/>
      <point x="34" y="-135"/>
    </contour>
  </outline>
</glyph>
<glyph name="equal" format="2">
  <advance width="647"/>
  <unicode hex="003D"/>
  <outline>
    <contour>
      <point x="36" y="253" type="qcurve" smooth="yes"/>
      <point x="36" y="271" type="line" smooth="yes"/>
      <point x="36" y="280"/>
      <point x="45" y="280" type="qcurve" smooth="yes"/>
      <point x="602" y="280" type="line" smooth="yes"/>
      <point x="611" y="280"/>
      <point x="611" y="271" type="qcurve" smooth="yes"/>
      <point x="611" y="253" type="line" smooth="yes"/>
      <point x="611" y="244"/>
      <point x="602" y="244" type="qcurve" smooth="yes"/>
      <point x="45" y="244" type="line" smooth="yes"/>
      <point x="36" y="244"/>
    </contour>
    <contour>
      <point x="36" y="433" type="qcurve" smooth="yes"/>
      <point x="36" y="451" type="line" smooth="yes"/>
      <point x="36" y="460"/>
      <point x="45" y="460" type="qcurve" smooth="yes"/>
      <point x="602" y="460" type="line" smooth="yes"/>
      <point x="611" y="460"/>
      <point x="611" y="451" type="qcurve" smooth="yes"/>
      <point x="611" y="433" type="line" smooth="yes"/>
      <point x="611" y="424"/>
      <point x="602" y="424" type="qcurve" smooth="yes"/>
      <point x="45" y="424" type="line" smooth="yes"/>
      <point x="36" y="424"/>
    </contour>
  </outline>
</glyph>
<glyph name="a" format="2">
  <advance width="494"/>
  <unicode hex="0061"/>
  <outline>
    <contour>
      <point x="327" y="254" type="line"/>
      <point x="266" y="233"/>
      <point x="233" y="216" type="qcurve" smooth="yes"/>
      <point x="188" y="193"/>
      <point x="142" y="145"/>
      <point x="142" y="100" type="qcurve" smooth="yes"/>
      <point x="142" y="70"/>
      <point x="176" y="30"/>
      <point x="208" y="30" type="qcurve" smooth="yes"/>
      <point x="244" y="30"/>
      <point x="314" y="78" type="qcurve" smooth="yes"/>
      <point x="327" y="87"/>
      <point x="327" y="102" type="qcurve" smooth="yes"/>
    </contour>
    <contour>
      <point x="417" y="107" type="line" smooth="yes"/>
      <point x="417" y="73"/>
      <point x="432" y="39"/>
      <point x="450" y="39" type="qcurve" smooth="yes"/>
      <point x="466" y="39"/>
      <point x="483" y="57" type="qcurve" smooth="yes"/>
      <point x="488" y="62"/>
      <point x="495" y="62" type="qcurve" smooth="yes"/>
      <point x="503" y="62"/>
      <point x="507" y="57" type="qcurve" smooth="yes"/>
      <point x="512" y="51"/>
      <point x="512" y="45" type="qcurve" smooth="yes"/>
      <point x="512" y="38"/>
      <point x="504" y="29" type="qcurve" smooth="yes"/>
      <point x="471" y="-9"/>
      <point x="423" y="-9" type="qcurve" smooth="yes"/>
      <point x="357" y="-9"/>
      <point x="327" y="51" type="qcurve"/>
      <point x="246" y="-18"/>
      <point x="155" y="-18" type="qcurve" smooth="yes"/>
      <point x="105" y="-18"/>
      <point x="36" y="40"/>
      <point x="36" y="86" type="qcurve" smooth="yes"/>
      <point x="36" y="165"/>
      <point x="145" y="214" type="qcurve" smooth="yes"/>
      <point x="234" y="254"/>
      <point x="314" y="285" type="qcurve" smooth="yes"/>
      <point x="327" y="290"/>
      <point x="327" y="305" type="qcurve" smooth="yes"/>
      <point x="326" y="356" type="line" smooth="yes"/>
      <point x="325" y="406"/>
      <point x="273" y="442"/>
      <point x="227" y="442" type="qcurve" smooth="yes"/>
      <point x="175" y="442"/>
      <point x="141" y="400"/>
      <point x="141" y="374" type="qcurve" smooth="yes"/>
      <point x="141" y="355"/>
      <point x="115" y="329"/>
      <point x="96" y="329" type="qcurve" smooth="yes"/>
      <point x="77" y="329"/>
      <point x="51" y="355"/>
      <point x="51" y="374" type="qcurve" smooth="yes"/>
      <point x="51" y="410"/>
      <point x="145" y="478"/>
      <point x="240" y="478" type="qcurve" smooth="yes"/>
      <point x="311" y="478"/>
      <point x="417" y="420"/>
      <point x="417" y="322" type="qcurve" smooth="yes"/>
    </contour>
  </outline>
</glyph>
<glyph name="b" format="2">
  <advance width="542"/>
  <unicode hex="0062"/>
  <outline>
    <contour>
      <point x="398" y="230" type="qcurve" smooth="yes"/>
      <point x="398" y="328"/>
      <point x="324" y="442"/>
      <point x="264" y="442" type="qcurve" smooth="yes"/>
      <point x="212" y="442"/>
      <point x="130" y="366"/>
      <point x="130" y="304" type="qcurve" smooth="yes"/>
      <point x="130" y="155" type="line" smooth="yes"/>
      <point x="130" y="94"/>
      <point x="213" y="18"/>
      <point x="264" y="18" type="qcurve" smooth="yes"/>
      <point x="323" y="18"/>
      <point x="398" y="131"/>
    </contour>
    <contour>
      <point x="269" y="-18" type="qcurve" smooth="yes"/>
      <point x="184" y="-18"/>
      <point x="104" y="55" type="qcurve"/>
      <point x="56" y="0" type="line" smooth="yes"/>
      <point x="53" y="-2"/>
      <point x="49" y="-2" type="qcurve" smooth="yes"/>
      <point x="45" y="-2"/>
      <point x="43" y="0" type="qcurve" smooth="yes"/>
      <point x="40" y="3"/>
      <point x="40" y="7" type="qcurve" smooth="yes"/>
      <point x="40" y="617" type="line" smooth="yes"/>
      <point x="40" y="639"/>
      <point x="8" y="671"/>
      <point x="-19" y="671" type="qcurve" smooth="yes"/>
      <point x="-27" y="671"/>
      <point x="-36" y="681"/>
      <point x="-36" y="697"/>
      <point x="-26" y="707"/>
      <point x="-19" y="707" type="qcurve" smooth="yes"/>
      <point x="-11" y="707"/>
      <point x="3" y="708" type="qcurve" smooth="yes"/>
      <point x="14" y="708"/>
      <point x="47" y="712" type="qcurve" smooth="yes"/>
      <point x="84" y="716"/>
      <point x="92" y="719" type="qcurve" smooth="yes"/>
      <point x="105" y="723"/>
      <point x="119" y="723"/>
      <point x="130" y="714"/>
      <point x="130" y="705" type="qcurve" smooth="yes"/>
      <point x="130" y="414" type="line"/>
      <point x="166" y="453"/>
      <point x="230" y="478"/>
      <point x="269" y="478" type="qcurve" smooth="yes"/>
      <point x="372" y="478"/>
      <point x="506" y="330"/>
      <point x="506" y="230" type="qcurve" smooth="yes"/>
      <point x="506" y="120"/>
      <point x="362" y="-18"/>
    </contour>
  </outline>
</glyph>
<glyph name="c" format="2">
  <advance width="410"/>
  <unicode hex="0063"/>
  <outline>
    <contour>
      <point x="402" y="70" type="curve" smooth="yes"/>
      <point x="408" y="62"/>
      <point x="404.243" y="52.7487"/>
      <point x="397" y="46" type="curve" smooth="yes"/>
      <point x="353" y="5"/>
      <point x="309" y="-8"/>
      <point x="255" y="-8" type="curve" smooth="yes"/>
      <point x="105" y="-8"/>
      <point x="18" y="89"/>
      <point x="18" y="219" type="curve" smooth="yes"/>
      <point x="18" y="349"/>
      <point x="105" y="456"/>
      <point x="255" y="456" type="curve" smooth="yes"/>
      <point x="363" y="456"/>
      <point x="393" y="421"/>
      <point x="393" y="389" type="curve" smooth="yes"/>
      <point x="393" y="364"/>
      <point x="373" y="344"/>
      <point x="348" y="344" type="curve" smooth="yes"/>
      <point x="323" y="344"/>
      <point x="307.16" y="363.003"/>
      <point x="303" y="389" type="curve" smooth="yes"/>
      <point x="299" y="414"/>
      <point x="280.306" y="424"/>
      <point x="260" y="424" type="curve" smooth="yes"/>
      <point x="161" y="424"/>
      <point x="114" y="329"/>
      <point x="114" y="219" type="curve" smooth="yes"/>
      <point x="114" y="109"/>
      <point x="159.39" y="24"/>
      <point x="255" y="24" type="curve" smooth="yes"/>
      <point x="309" y="24"/>
      <point x="334.874" y="38.6556"/>
      <point x="378" y="71" type="curve" smooth="yes"/>
      <point x="386" y="77"/>
      <point x="396" y="78"/>
    </contour>
  </outline>
</glyph>
<glyph name="d" format="2">
  <advance width="512"/>
  <unicode hex="0064"/>
  <outline>
    <contour>
      <point x="224" y="-8" type="curve" smooth="yes"/>
      <point x="98" y="-8"/>
      <point x="16" y="83"/>
      <point x="16" y="224" type="curve" smooth="yes"/>
      <point x="16" y="353"/>
      <point x="101" y="456"/>
      <point x="224" y="456" type="curve" smooth="yes"/>
      <point x="287" y="456"/>
      <point x="316" y="436"/>
      <point x="352" y="397" type="curve"/>
      <point x="352" y="609" type="line" smooth="yes"/>
      <point x="352" y="627"/>
      <point x="338" y="641"/>
      <point x="320" y="641" type="curve" smooth="yes"/>
      <point x="304" y="641" type="line" smooth="yes"/>
      <point x="294" y="641"/>
      <point x="288" y="648"/>
      <point x="288" y="657" type="curve" smooth="yes"/>
      <point x="288" y="666"/>
      <point x="294" y="673"/>
      <point x="304" y="673" type="curve" smooth="yes"/>
      <point x="338" y="673"/>
      <point x="404" y="687"/>
      <point x="414" y="689" type="curve" smooth="yes"/>
      <point x="424" y="691"/>
      <point x="432" y="681"/>
      <point x="432" y="671" type="curve" smooth="yes"/>
      <point x="432" y="482"/>
      <point x="432" y="104"/>
      <point x="432" y="104" type="curve" smooth="yes"/>
      <point x="432" y="72"/>
      <point x="458" y="52"/>
      <point x="488" y="49" type="curve" smooth="yes"/>
      <point x="498" y="48"/>
      <point x="504" y="42"/>
      <point x="504" y="33" type="curve" smooth="yes"/>
      <point x="504" y="24"/>
      <point x="497" y="18"/>
      <point x="488" y="17" type="curve" smooth="yes"/>
      <point x="462" y="13"/>
      <point x="419" y="4"/>
      <point x="394" y="-4" type="curve" smooth="yes"/>
      <point x="386" y="-6"/>
      <point x="378" y="-11"/>
      <point x="370" y="-3" type="curve" smooth="yes"/>
      <point x="363" y="4"/>
      <point x="359" y="28"/>
      <point x="357" y="40" type="curve"/>
      <point x="313" y="7"/>
      <point x="269" y="-8"/>
    </contour>
    <contour>
      <point x="112" y="224" type="curve" smooth="yes"/>
      <point x="112" y="124"/>
      <point x="144" y="24"/>
      <point x="232" y="24" type="curve" smooth="yes"/>
      <point x="301" y="24"/>
      <point x="352" y="75"/>
      <point x="352" y="148" type="curve" smooth="yes"/>
      <point x="352" y="293" type="line" smooth="yes"/>
      <point x="352" y="367"/>
      <point x="299" y="424"/>
      <point x="232" y="424" type="curve" smooth="yes"/>
      <point x="146" y="424"/>
      <point x="112" y="324"/>
    </contour>
  </outline>
</glyph>
<glyph name="e" format="2">
  <advance width="460"/>
  <unicode hex="0065"/>
  <outline>
    <contour>
      <point x="335" y="300" type="line" smooth="yes"/>
      <point x="342" y="300"/>
      <point x="346" y="305"/>
      <point x="346" y="311" type="curve" smooth="yes"/>
      <point x="346" y="371"/>
      <point x="321" y="424"/>
      <point x="250" y="424" type="curve" smooth="yes"/>
      <point x="167" y="424"/>
      <point x="137" y="371"/>
      <point x="122" y="300" type="curve"/>
    </contour>
    <contour>
      <point x="434" y="268" type="curve" smooth="yes"/>
      <point x="117" y="268" type="line"/>
      <point x="115" y="251"/>
      <point x="114" y="234"/>
      <point x="114" y="218" type="curve" smooth="yes"/>
      <point x="114" y="111"/>
      <point x="157" y="24"/>
      <point x="254" y="24" type="curve" smooth="yes"/>
      <point x="320" y="24"/>
      <point x="352" y="46"/>
      <point x="402" y="88" type="curve" smooth="yes"/>
      <point x="410" y="94"/>
      <point x="420" y="95"/>
      <point x="426" y="87" type="curve" smooth="yes"/>
      <point x="432" y="79"/>
      <point x="428" y="70"/>
      <point x="421" y="63" type="curve" smooth="yes"/>
      <point x="388" y="30"/>
      <point x="343" y="-8"/>
      <point x="255" y="-8" type="curve" smooth="yes"/>
      <point x="105" y="-8"/>
      <point x="18" y="89"/>
      <point x="18" y="218" type="curve" smooth="yes"/>
      <point x="18" y="349"/>
      <point x="123" y="456"/>
      <point x="255" y="456" type="curve" smooth="yes"/>
      <point x="356" y="456"/>
      <point x="442" y="379"/>
      <point x="442" y="275" type="curve" smooth="yes"/>
      <point x="442" y="270"/>
      <point x="440" y="268"/>
    </contour>
  </outline>
</glyph>
<glyph name="f" format="2">
  <advance width="309"/>
  <unicode hex="0066"/>
  <outline>
    <contour>
      <point x="373" y="633" type="qcurve" smooth="yes"/>
      <point x="347" y="633"/>
      <point x="335" y="659" type="qcurve" smooth="yes"/>
      <point x="322" y="687"/>
      <point x="290" y="687" type="qcurve" smooth="yes"/>
      <point x="239" y="687"/>
      <point x="189" y="605"/>
      <point x="189" y="506" type="qcurve" smooth="yes"/>
      <point x="189" y="460" type="line"/>
      <point x="309" y="460" type="line" smooth="yes"/>
      <point x="318" y="460"/>
      <point x="318" y="451" type="qcurve" smooth="yes"/>
      <point x="318" y="432" type="line" smooth="yes"/>
      <point x="318" y="423"/>
      <point x="309" y="423" type="qcurve" smooth="yes"/>
      <point x="189" y="423" type="line"/>
      <point x="189" y="125" type="line" smooth="yes"/>
      <point x="189" y="61"/>
      <point x="201" y="49" type="qcurve" smooth="yes"/>
      <point x="213" y="36"/>
      <point x="233" y="35" type="qcurve" smooth="yes"/>
      <point x="271" y="34" type="line" smooth="yes"/>
      <point x="279" y="34"/>
      <point x="289" y="24"/>
      <point x="289" y="8"/>
      <point x="279" y="-2"/>
      <point x="271" y="-2" type="qcurve" smooth="yes"/>
      <point x="262" y="-2"/>
      <point x="208" y="0"/>
      <point x="172" y="0" type="qcurve" smooth="yes"/>
      <point x="135" y="0" type="line" smooth="yes"/>
      <point x="99" y="0"/>
      <point x="45" y="-2"/>
      <point x="36" y="-2" type="qcurve" smooth="yes"/>
      <point x="28" y="-2"/>
      <point x="18" y="8"/>
      <point x="18" y="24"/>
      <point x="28" y="34"/>
      <point x="36" y="34" type="qcurve" smooth="yes"/>
      <point x="54" y="35" type="line" smooth="yes"/>
      <point x="72" y="36"/>
      <point x="86" y="49" type="qcurve" smooth="yes"/>
      <point x="99" y="61"/>
      <point x="99" y="125" type="qcurve" smooth="yes"/>
      <point x="99" y="424" type="line"/>
      <point x="18" y="424" type="line" smooth="yes"/>
      <point x="9" y="424"/>
      <point x="9" y="433" type="qcurve" smooth="yes"/>
      <point x="9" y="451" type="line" smooth="yes"/>
      <point x="9" y="460"/>
      <point x="18" y="460" type="qcurve" smooth="yes"/>
      <point x="99" y="460" type="line"/>
      <point x="99" y="542" type="line" smooth="yes"/>
      <point x="99" y="624"/>
      <point x="205" y="723"/>
      <point x="305" y="723" type="qcurve" smooth="yes"/>
      <point x="363" y="723"/>
      <point x="415" y="693"/>
      <point x="415" y="673" type="qcurve" smooth="yes"/>
      <point x="415" y="653"/>
      <point x="393" y="633"/>
    </contour>
  </outline>
</glyph>
<glyph name="g" format="2">
  <advance width="548"/>
  <unicode hex="0067"/>
  <outline>
    <contour>
      <point x="489" y="364" type="curve" smooth="yes"/>
      <point x="475" y="364"/>
      <point x="463" y="371"/>
      <point x="453" y="385" type="curve" smooth="yes"/>
      <point x="444.333" y="397.667"/>
      <point x="434.667" y="404"/>
      <point x="424" y="404" type="curve" smooth="yes"/>
      <point x="411.333" y="404"/>
      <point x="399" y="399.333"/>
      <point x="387" y="390" type="curve"/>
      <point x="411.667" y="361.333"/>
      <point x="424" y="326.667"/>
      <point x="424" y="286" type="curve" smooth="yes"/>
      <point x="424" y="235.333"/>
      <point x="405.833" y="194"/>
      <point x="369.5" y="162" type="curve" smooth="yes"/>
      <point x="333.167" y="130"/>
      <point x="288.333" y="114"/>
      <point x="235" y="114" type="curve" smooth="yes"/>
      <point x="177" y="114"/>
      <point x="143.333" y="110.833"/>
      <point x="134" y="104.5" type="curve" smooth="yes"/>
      <point x="124.667" y="98.1667"/>
      <point x="120" y="90.6667"/>
      <point x="120" y="82" type="curve" smooth="yes"/>
      <point x="120" y="73.3333"/>
      <point x="124.833" y="65.8333"/>
      <point x="134.5" y="59.5" type="curve" smooth="yes"/>
      <point x="144.167" y="53.1667"/>
      <point x="177.667" y="50"/>
      <point x="235" y="50" type="curve" smooth="yes"/>
      <point x="270" y="50" type="line" smooth="yes"/>
      <point x="336" y="50"/>
      <point x="387.833" y="36.6667"/>
      <point x="425.5" y="10" type="curve" smooth="yes"/>
      <point x="463.167" y="-16.6667"/>
      <point x="482" y="-58.6667"/>
      <point x="482" y="-116" type="curve" smooth="yes"/>
      <point x="482" y="-163.333"/>
      <point x="461.167" y="-201.833"/>
      <point x="419.5" y="-231.5" type="curve" smooth="yes"/>
      <point x="377.833" y="-261.167"/>
      <point x="324" y="-276"/>
      <point x="258" y="-276" type="curve" smooth="yes"/>
      <point x="184.667" y="-276"/>
      <point x="129" y="-263.333"/>
      <point x="91" y="-238" type="curve" smooth="yes"/>
      <point x="53" y="-212.667"/>
      <point x="34" y="-179.667"/>
      <point x="34" y="-139" type="curve" smooth="yes"/>
      <point x="34" y="-119"/>
      <point x="41.6667" y="-100.333"/>
      <point x="57" y="-83" type="curve" smooth="yes"/>
      <point x="72.3333" y="-65"/>
      <point x="90.3333" y="-56"/>
      <point x="111" y="-56" type="curve" smooth="yes"/>
      <point x="120.333" y="-56"/>
      <point x="127.667" y="-58"/>
      <point x="133" y="-62" type="curve" smooth="yes"/>
      <point x="138.333" y="-66"/>
      <point x="141" y="-69.1667"/>
      <point x="141" y="-71.5" type="curve" smooth="yes"/>
      <point x="141" y="-73.8333"/>
      <point x="140" y="-75.6667"/>
      <point x="138" y="-77" type="curve" smooth="yes"/>
      <point x="112.667" y="-93.6667"/>
      <point x="100" y="-115"/>
      <point x="100" y="-141" type="curve" smooth="yes"/>
      <point x="100" y="-169"/>
      <point x="115.167" y="-192.833"/>
      <point x="145.5" y="-212.5" type="curve" smooth="yes"/>
      <point x="175.833" y="-232.167"/>
      <point x="213.333" y="-242"/>
      <point x="258" y="-242" type="curve" smooth="yes"/>
      <point x="302" y="-242"/>
      <point x="339.167" y="-232.167"/>
      <point x="369.5" y="-212.5" type="curve" smooth="yes"/>
      <point x="399.833" y="-192.833"/>
      <point x="415" y="-168.333"/>
      <point x="415" y="-139" type="curve" smooth="yes"/>
      <point x="415" y="-109.667"/>
      <point x="399.833" y="-85.1667"/>
      <point x="369.5" y="-65.5" type="curve" smooth="yes"/>
      <point x="339.167" y="-45.8333"/>
      <point x="302.667" y="-36"/>
      <point x="260" y="-36" type="curve" smooth="yes"/>
      <point x="226" y="-36" type="line" smooth="yes"/>
      <point x="168" y="-36"/>
      <point x="127.5" y="-28.3333"/>
      <point x="104.5" y="-13" type="curve" smooth="yes"/>
      <point x="81.5" y="2.33333"/>
      <point x="70" y="24"/>
      <point x="70" y="52" type="curve" smooth="yes"/>
      <point x="70" y="76"/>
      <point x="77.6667" y="95.3333"/>
      <point x="93" y="110" type="curve" smooth="yes"/>
      <point x="108.333" y="124.667"/>
      <point x="124" y="133.333"/>
      <point x="140" y="136" type="curve"/>
      <point x="125.333" y="142.667"/>
      <point x="112.333" y="151"/>
      <point x="101" y="161" type="curve" smooth="yes"/>
      <point x="65" y="193.667"/>
      <point x="47" y="235.333"/>
      <point x="47" y="286" type="curve" smooth="yes"/>
      <point x="47" y="336"/>
      <point x="65.1667" y="376.667"/>
      <point x="101.5" y="408" type="curve" smooth="yes"/>
      <point x="137.833" y="439.333"/>
      <point x="182.333" y="455"/>
      <point x="235" y="455" type="curve" smooth="yes"/>
      <point x="285.667" y="455"/>
      <point x="329.333" y="440"/>
      <point x="366" y="410" type="curve"/>
      <point x="377.333" y="419.333"/>
      <point x="390.667" y="427.667"/>
      <point x="406" y="435" type="curve" smooth="yes"/>
      <point x="429.333" y="445.667"/>
      <point x="452" y="451"/>
      <point x="474" y="451" type="curve" smooth="yes"/>
      <point x="489.333" y="451"/>
      <point x="502.667" y="447"/>
      <point x="514" y="439" type="curve" smooth="yes"/>
      <point x="525.333" y="431"/>
      <point x="531" y="419.333"/>
      <point x="531" y="404" type="curve" smooth="yes"/>
      <point x="531" y="391.333"/>
      <point x="527" y="381.5"/>
      <point x="519" y="374.5" type="curve" smooth="yes"/>
      <point x="511" y="367.5"/>
      <point x="501" y="364"/>
    </contour>
    <contour>
      <point x="338" y="286" type="curve" smooth="yes"/>
      <point x="338" y="326"/>
      <point x="327.5" y="358.5"/>
      <point x="306.5" y="383.5" type="curve" smooth="yes"/>
      <point x="285.5" y="408.5"/>
      <point x="261.667" y="421"/>
      <point x="235" y="421" type="curve" smooth="yes"/>
      <point x="208.333" y="421"/>
      <point x="184.5" y="408.5"/>
      <point x="163.5" y="383.5" type="curve" smooth="yes"/>
      <point x="142.5" y="358.5"/>
      <point x="132" y="326"/>
      <point x="132" y="286" type="curve" smooth="yes"/>
      <point x="132" y="246"/>
      <point x="142.5" y="213.167"/>
      <point x="163.5" y="187.5" type="curve" smooth="yes"/>
      <point x="184.5" y="161.833"/>
      <point x="208.333" y="149"/>
      <point x="235" y="149" type="curve" smooth="yes"/>
      <point x="261.667" y="149"/>
      <point x="285.5" y="161.833"/>
      <point x="306.5" y="187.5" type="curve" smooth="yes"/>
      <point x="327.5" y="213.167"/>
      <point x="338" y="246"/>
    </contour>
  </outline>
</glyph>
<glyph name="h" format="2">
  <advance width="629"/>
  <unicode hex="0068"/>
  <outline>
    <contour>
      <point x="441" y="283" type="line" smooth="yes"/>
      <point x="441" y="362"/>
      <point x="385" y="432"/>
      <point x="339" y="432" type="qcurve" smooth="yes"/>
      <point x="256" y="432"/>
      <point x="189" y="335"/>
      <point x="189" y="238" type="qcurve" smooth="yes"/>
      <point x="189" y="125" type="line" smooth="yes"/>
      <point x="189" y="61"/>
      <point x="201" y="49" type="qcurve" smooth="yes"/>
      <point x="213" y="36"/>
      <point x="233" y="35" type="qcurve" smooth="yes"/>
      <point x="251" y="34" type="line" smooth="yes"/>
      <point x="259" y="34"/>
      <point x="269" y="24"/>
      <point x="269" y="8"/>
      <point x="259" y="-2"/>
      <point x="251" y="-2" type="qcurve" smooth="yes"/>
      <point x="242" y="-2"/>
      <point x="188" y="0"/>
      <point x="152" y="0" type="qcurve" smooth="yes"/>
      <point x="135" y="0" type="line" smooth="yes"/>
      <point x="99" y="0"/>
      <point x="45" y="-2"/>
      <point x="36" y="-2" type="qcurve" smooth="yes"/>
      <point x="28" y="-2"/>
      <point x="18" y="8"/>
      <point x="18" y="24"/>
      <point x="28" y="34"/>
      <point x="36" y="34" type="qcurve" smooth="yes"/>
      <point x="54" y="35" type="line" smooth="yes"/>
      <point x="72" y="36"/>
      <point x="86" y="49" type="qcurve" smooth="yes"/>
      <point x="99" y="61"/>
      <point x="99" y="125" type="qcurve" smooth="yes"/>
      <point x="99" y="617" type="line" smooth="yes"/>
      <point x="99" y="639"/>
      <point x="67" y="671"/>
      <point x="40" y="671" type="qcurve" smooth="yes"/>
      <point x="32" y="671"/>
      <point x="23" y="681"/>
      <point x="23" y="697"/>
      <point x="33" y="707"/>
      <point x="40" y="707" type="qcurve" smooth="yes"/>
      <point x="48" y="707"/>
      <point x="62" y="708" type="qcurve" smooth="yes"/>
      <point x="73" y="708"/>
      <point x="106" y="712" type="qcurve" smooth="yes"/>
      <point x="143" y="716"/>
      <point x="151" y="719" type="qcurve" smooth="yes"/>
      <point x="164" y="723"/>
      <point x="178" y="723"/>
      <point x="184" y="718" type="qcurve" smooth="yes"/>
      <point x="189" y="712"/>
      <point x="189" y="705" type="qcurve" smooth="yes"/>
      <point x="189" y="394" type="line"/>
      <point x="220" y="440"/>
      <point x="262" y="459" type="qcurve" smooth="yes"/>
      <point x="304" y="478"/>
      <point x="361" y="478" type="qcurve" smooth="yes"/>
      <point x="444" y="478"/>
      <point x="531" y="400"/>
      <point x="531" y="308" type="qcurve" smooth="yes"/>
      <point x="531" y="125" type="line" smooth="yes"/>
      <point x="531" y="61"/>
      <point x="543" y="49" type="qcurve" smooth="yes"/>
      <point x="555" y="36"/>
      <point x="575" y="35" type="qcurve" smooth="yes"/>
      <point x="593" y="34" type="line" smooth="yes"/>
      <point x="601" y="34"/>
      <point x="611" y="24"/>
      <point x="611" y="8"/>
      <point x="601" y="-2"/>
      <point x="593" y="-2" type="qcurve" smooth="yes"/>
      <point x="584" y="-2"/>
      <point x="530" y="0"/>
      <point x="494" y="0" type="qcurve" smooth="yes"/>
      <point x="477" y="0" type="line" smooth="yes"/>
      <point x="441" y="0"/>
      <point x="387" y="-2"/>
      <point x="378" y="-2" type="qcurve" smooth="yes"/>
      <point x="370" y="-2"/>
      <point x="360" y="8"/>
      <point x="360" y="24"/>
      <point x="370" y="34"/>
      <point x="378" y="34" type="qcurve" smooth="yes"/>
      <point x="396" y="35" type="line" smooth="yes"/>
      <point x="414" y="36"/>
      <point x="428" y="49" type="qcurve" smooth="yes"/>
      <point x="441" y="61"/>
      <point x="441" y="125" type="qcurve" smooth="yes"/>
    </contour>
  </outline>
</glyph>
<glyph name="i" format="2">
  <advance width="295"/>
  <unicode hex="0069"/>
  <outline>
    <contour>
      <point x="92" y="623" type="curve" smooth="yes"/>
      <point x="92" y="650"/>
      <point x="114" y="671"/>
      <point x="140" y="671" type="curve" smooth="yes"/>
      <point x="166" y="671"/>
      <point x="188" y="649"/>
      <point x="188" y="623" type="curve" smooth="yes"/>
      <point x="188" y="597"/>
      <point x="166" y="575"/>
      <point x="140" y="575" type="curve" smooth="yes"/>
      <point x="114" y="575"/>
      <point x="92" y="596"/>
    </contour>
    <contour>
      <point x="188" y="120" type="curve" smooth="yes"/>
      <point x="188" y="60"/>
      <point x="190" y="34"/>
      <point x="230" y="32" type="curve" smooth="yes"/>
      <point x="248" y="31" type="line" smooth="yes"/>
      <point x="258" y="30.4404"/>
      <point x="264" y="24"/>
      <point x="264" y="15" type="curve" smooth="yes"/>
      <point x="264" y="6"/>
      <point x="258" y="-1"/>
      <point x="248" y="-1" type="curve" smooth="yes"/>
      <point x="223" y="-1"/>
      <point x="188" y="0"/>
      <point x="156" y="0" type="curve" smooth="yes"/>
      <point x="140" y="0" type="line" smooth="yes"/>
      <point x="108.344" y="0"/>
      <point x="72.7314" y="-1"/>
      <point x="48" y="-1" type="curve" smooth="yes"/>
      <point x="38" y="-1"/>
      <point x="32" y="6"/>
      <point x="32" y="15" type="curve" smooth="yes"/>
      <point x="32" y="24"/>
      <point x="38" y="30.4756"/>
      <point x="48" y="31" type="curve" smooth="yes"/>
      <point x="66" y="32" type="line" smooth="yes"/>
      <point x="105" y="34"/>
      <point x="108" y="60"/>
      <point x="108" y="120" type="curve" smooth="yes"/>
      <point x="108" y="205"/>
      <point x="108" y="375"/>
      <point x="108" y="375" type="curve" smooth="yes"/>
      <point x="108" y="393"/>
      <point x="95" y="406"/>
      <point x="77" y="407" type="curve" smooth="yes"/>
      <point x="59" y="408" type="line" smooth="yes"/>
      <point x="51" y="408"/>
      <point x="44" y="415"/>
      <point x="44" y="424" type="curve" smooth="yes"/>
      <point x="44" y="433"/>
      <point x="51.0137" y="439.539"/>
      <point x="59" y="440" type="curve" smooth="yes"/>
      <point x="94.002" y="442.019"/>
      <point x="146.939" y="450.235"/>
      <point x="166" y="455" type="curve" smooth="yes"/>
      <point x="178" y="458"/>
      <point x="188" y="450"/>
      <point x="188" y="440" type="curve" smooth="yes"/>
      <point x="188" y="440"/>
      <point x="188" y="227"/>
    </contour>
  </outline>
</glyph>
<glyph name="j" format="2">
  <advance width="237"/>
  <unicode hex="006A"/>
  <outline>
    <contour>
      <point x="90" y="651" type="qcurve" smooth="yes"/>
      <point x="90" y="673"/>
      <point x="122" y="705"/>
      <point x="144" y="705" type="qcurve" smooth="yes"/>
      <point x="166" y="705"/>
      <point x="198" y="673"/>
      <point x="198" y="651" type="qcurve" smooth="yes"/>
      <point x="198" y="629"/>
      <point x="166" y="597"/>
      <point x="144" y="597" type="qcurve" smooth="yes"/>
      <point x="122" y="597"/>
      <point x="90" y="629"/>
    </contour>
    <contour>
      <point x="-99" y="-181" type="qcurve" smooth="yes"/>
      <point x="-84" y="-181"/>
      <point x="-66" y="-195"/>
      <point x="-41" y="-244"/>
      <point x="-5" y="-244" type="qcurve" smooth="yes"/>
      <point x="46" y="-244"/>
      <point x="111" y="-169"/>
      <point x="111" y="-56" type="qcurve" smooth="yes"/>
      <point x="111" y="372" type="line" smooth="yes"/>
      <point x="111" y="394"/>
      <point x="79" y="426"/>
      <point x="52" y="426" type="qcurve" smooth="yes"/>
      <point x="44" y="426"/>
      <point x="35" y="436"/>
      <point x="35" y="452"/>
      <point x="45" y="462"/>
      <point x="52" y="462" type="qcurve" smooth="yes"/>
      <point x="60" y="462"/>
      <point x="74" y="463" type="qcurve" smooth="yes"/>
      <point x="85" y="463"/>
      <point x="118" y="467" type="qcurve" smooth="yes"/>
      <point x="155" y="471"/>
      <point x="163" y="474" type="qcurve" smooth="yes"/>
      <point x="176" y="478"/>
      <point x="190" y="478"/>
      <point x="196" y="473" type="qcurve" smooth="yes"/>
      <point x="201" y="469"/>
      <point x="201" y="460" type="qcurve" smooth="yes"/>
      <point x="201" y="-56" type="line" smooth="yes"/>
      <point x="201" y="-174"/>
      <point x="97" y="-290"/>
      <point x="6" y="-290" type="qcurve" smooth="yes"/>
      <point x="-58" y="-290"/>
      <point x="-144" y="-256"/>
      <point x="-144" y="-226" type="qcurve" smooth="yes"/>
      <point x="-144" y="-204"/>
      <point x="-132" y="-193" type="qcurve" smooth="yes"/>
      <point x="-119" y="-181"/>
    </contour>
  </outline>
</glyph>
<glyph name="k" format="2">
  <advance width="497"/>
  <unicode hex="006B"/>
  <outline>
    <contour>
      <point x="172" y="230" type="curve"/>
      <point x="222.287" y="284.596"/>
      <point x="325" y="397" type="line" smooth="yes"/>
      <point x="329" y="401.366"/>
      <point x="325" y="404.952"/>
      <point x="323" y="405" type="curve" smooth="yes"/>
      <point x="281" y="406" type="line" smooth="yes"/>
      <point x="271.003" y="406.244"/>
      <point x="265" y="413"/>
      <point x="265" y="422" type="curve" smooth="yes"/>
      <point x="265" y="431"/>
      <point x="271" y="438"/>
      <point x="281" y="438" type="curve" smooth="yes"/>
      <point x="297" y="438"/>
      <point x="332" y="437"/>
      <point x="352" y="437" type="curve" smooth="yes"/>
      <point x="372" y="437"/>
      <point x="403" y="438"/>
      <point x="419" y="438" type="curve" smooth="yes"/>
      <point x="429" y="438"/>
      <point x="436" y="431"/>
      <point x="436" y="422" type="curve" smooth="yes"/>
      <point x="436" y="413"/>
      <point x="429" y="406.37"/>
      <point x="419" y="406" type="curve" smooth="yes"/>
      <point x="392" y="405" type="line" smooth="yes"/>
      <point x="382" y="404.63"/>
      <point x="371" y="398.84"/>
      <point x="361" y="388" type="curve" smooth="yes"/>
      <point x="242" y="259" type="line"/>
      <point x="431" y="52" type="line" smooth="yes"/>
      <point x="441.024" y="41.0217"/>
      <point x="453.119" y="34.4427"/>
      <point x="465" y="31" type="curve" smooth="yes"/>
      <point x="476" y="27.8125"/>
      <point x="481" y="23.5625"/>
      <point x="481" y="14" type="curve" smooth="yes"/>
      <point x="481" y="5.5625"/>
      <point x="474" y="-1"/>
      <point x="465" y="-1" type="curve" smooth="yes"/>
      <point x="456" y="-1"/>
      <point x="436" y="0"/>
      <point x="427" y="0" type="curve" smooth="yes"/>
      <point x="418" y="0"/>
      <point x="397" y="-1"/>
      <point x="388" y="-1" type="curve" smooth="yes"/>
      <point x="375" y="-1"/>
      <point x="366.239" y="4.21974"/>
      <point x="360" y="11" type="curve" smooth="yes"/>
      <point x="187" y="199" type="line"/>
      <point x="172" y="182" type="line"/>
      <point x="172" y="120" type="line" smooth="yes"/>
      <point x="172" y="60"/>
      <point x="174.013" y="34.2215"/>
      <point x="214" y="32" type="curve" smooth="yes"/>
      <point x="232" y="31" type="line" smooth="yes"/>
      <point x="242" y="30.4444"/>
      <point x="248" y="24"/>
      <point x="248" y="15" type="curve" smooth="yes"/>
      <point x="248" y="6"/>
      <point x="242" y="-1"/>
      <point x="232" y="-1" type="curve" smooth="yes"/>
      <point x="207" y="-1"/>
      <point x="172" y="-3.91887e-15"/>
      <point x="140" y="0" type="curve" smooth="yes"/>
      <point x="124" y="0" type="line" smooth="yes"/>
      <point x="92.3438" y="0"/>
      <point x="56.7314" y="-1"/>
      <point x="32" y="-1" type="curve" smooth="yes"/>
      <point x="22" y="-1"/>
      <point x="16" y="6"/>
      <point x="16" y="15" type="curve" smooth="yes"/>
      <point x="16" y="24"/>
      <point x="22.0016" y="30.4445"/>
      <point x="32" y="31" type="curve" smooth="yes"/>
      <point x="50" y="32" type="line" smooth="yes"/>
      <point x="88.9908" y="34.1662"/>
      <point x="92" y="60"/>
      <point x="92" y="120" type="curve" smooth="yes"/>
      <point x="92" y="608" type="line" smooth="yes"/>
      <point x="92" y="626"/>
      <point x="79" y="639"/>
      <point x="61" y="640" type="curve" smooth="yes"/>
      <point x="43" y="641" type="line" smooth="yes"/>
      <point x="35.0244" y="641.443"/>
      <point x="28" y="648"/>
      <point x="28" y="657" type="curve" smooth="yes"/>
      <point x="28" y="666"/>
      <point x="35.0127" y="672.544"/>
      <point x="43" y="673" type="curve" smooth="yes"/>
      <point x="78.0566" y="675"/>
      <point x="131" y="683.001"/>
      <point x="150" y="688" type="curve" smooth="yes"/>
      <point x="161.962" y="691.147"/>
      <point x="172" y="683"/>
      <point x="172" y="673" type="curve" smooth="yes"/>
      <point x="172" y="377.667"/>
    </contour>
  </outline>
</glyph>
<glyph name="l" format="2">
  <advance width="307"/>
  <unicode hex="006C"/>
  <outline>
    <contour>
      <point x="111" y="588" type="line" smooth="yes"/>
      <point x="111" y="602"/>
      <point x="106" y="614"/>
      <point x="96" y="624" type="curve" smooth="yes"/>
      <point x="86" y="634"/>
      <point x="72.3333" y="639"/>
      <point x="55" y="639" type="curve" smooth="yes"/>
      <point x="49.6667" y="639"/>
      <point x="45.6667" y="640.667"/>
      <point x="43" y="644" type="curve" smooth="yes"/>
      <point x="40.3333" y="647.333"/>
      <point x="39" y="651.333"/>
      <point x="39" y="656" type="curve" smooth="yes"/>
      <point x="39" y="661.333"/>
      <point x="40.6667" y="665.5"/>
      <point x="44" y="668.5" type="curve" smooth="yes"/>
      <point x="47.3333" y="671.5"/>
      <point x="51" y="673"/>
      <point x="55" y="673" type="curve" smooth="yes"/>
      <point x="60.3333" y="673"/>
      <point x="67.3333" y="673.333"/>
      <point x="76" y="674" type="curve" smooth="yes"/>
      <point x="82.6667" y="674"/>
      <point x="96.6667" y="675.333"/>
      <point x="118" y="678" type="curve" smooth="yes"/>
      <point x="141.333" y="680.667"/>
      <point x="155.667" y="683"/>
      <point x="161" y="685" type="curve" smooth="yes"/>
      <point x="169" y="687.667"/>
      <point x="175.333" y="689"/>
      <point x="180" y="689" type="curve" smooth="yes"/>
      <point x="184.667" y="689"/>
      <point x="188.667" y="687.333"/>
      <point x="192" y="684" type="curve" smooth="yes"/>
      <point x="195.333" y="680"/>
      <point x="197" y="675.667"/>
      <point x="197" y="671" type="curve" smooth="yes"/>
      <point x="197" y="119" type="line" smooth="yes"/>
      <point x="197" y="78.3333"/>
      <point x="201" y="54.3333"/>
      <point x="209" y="47" type="curve" smooth="yes"/>
      <point x="216.333" y="39"/>
      <point x="226.333" y="34.3333"/>
      <point x="239" y="33" type="curve" smooth="yes"/>
      <point x="256" y="32" type="line" smooth="yes"/>
      <point x="261.333" y="32"/>
      <point x="265.5" y="30.5"/>
      <point x="268.5" y="27.5" type="curve" smooth="yes"/>
      <point x="271.5" y="24.5"/>
      <point x="273" y="20.5"/>
      <point x="273" y="15.5" type="curve" smooth="yes"/>
      <point x="273" y="10.5"/>
      <point x="271.5" y="6.33333"/>
      <point x="268.5" y="3" type="curve" smooth="yes"/>
      <point x="265.5" y="-0.333333"/>
      <point x="261.333" y="-2"/>
      <point x="256" y="-2" type="curve" smooth="yes"/>
      <point x="250" y="-2"/>
      <point x="238.5" y="-1.66667"/>
      <point x="221.5" y="-1" type="curve" smooth="yes"/>
      <point x="204.5" y="-0.333333"/>
      <point x="184.667" y="0"/>
      <point x="162" y="0" type="curve" smooth="yes"/>
      <point x="146" y="0" type="line" smooth="yes"/>
      <point x="123.333" y="0"/>
      <point x="103.333" y="-0.333333"/>
      <point x="86" y="-1" type="curve" smooth="yes"/>
      <point x="68.6667" y="-1.66667"/>
      <point x="57" y="-2"/>
      <point x="51" y="-2" type="curve" smooth="yes"/>
      <point x="45.6667" y="-2"/>
      <point x="41.5" y="-0.333333"/>
      <point x="38.5" y="3" type="curve" smooth="yes"/>
      <point x="35.5" y="6.33333"/>
      <point x="34" y="10.5"/>
      <point x="34" y="15.5" type="curve" smooth="yes"/>
      <point x="34" y="20.5"/>
      <point x="35.6667" y="24.5"/>
      <point x="39" y="27.5" type="curve" smooth="yes"/>
      <point x="42.3333" y="30.5"/>
      <point x="46.3333" y="32"/>
      <point x="51" y="32" type="curve" smooth="yes"/>
      <point x="69" y="33" type="line" smooth="yes"/>
      <point x="80.3333" y="33.6667"/>
      <point x="90.3333" y="38.3333"/>
      <point x="99" y="47" type="curve" smooth="yes"/>
      <point x="107" y="54.3333"/>
      <point x="111" y="78.3333"/>
      <point x="111" y="119" type="curve" smooth="yes"/>
    </contour>
  </outline>
</glyph>
<glyph name="m" format="2">
  <advance width="935"/>
  <unicode hex="006D"/>
  <outline>
    <contour>
      <point x="747" y="283" type="line" smooth="yes"/>
      <point x="747" y="362"/>
      <point x="698" y="432"/>
      <point x="648" y="432" type="qcurve" smooth="yes"/>
      <point x="585" y="432"/>
      <point x="513" y="335"/>
      <point x="513" y="238" type="qcurve" smooth="yes"/>
      <point x="513" y="125" type="line" smooth="yes"/>
      <point x="513" y="61"/>
      <point x="525" y="49" type="qcurve" smooth="yes"/>
      <point x="537" y="36"/>
      <point x="557" y="35" type="qcurve" smooth="yes"/>
      <point x="575" y="34" type="line" smooth="yes"/>
      <point x="583" y="34"/>
      <point x="593" y="24"/>
      <point x="593" y="8"/>
      <point x="583" y="-2"/>
      <point x="575" y="-2" type="qcurve" smooth="yes"/>
      <point x="566" y="-2"/>
      <point x="512" y="0"/>
      <point x="476" y="0" type="qcurve" smooth="yes"/>
      <point x="459" y="0" type="line" smooth="yes"/>
      <point x="423" y="0"/>
      <point x="369" y="-2"/>
      <point x="360" y="-2" type="qcurve" smooth="yes"/>
      <point x="352" y="-2"/>
      <point x="342" y="8"/>
      <point x="342" y="16" type="qcurve" smooth="yes"/>
      <point x="342" y="23"/>
      <point x="348" y="29" type="qcurve" smooth="yes"/>
      <point x="353" y="34"/>
      <point x="360" y="34" type="qcurve" smooth="yes"/>
      <point x="378" y="35" type="line" smooth="yes"/>
      <point x="396" y="36"/>
      <point x="423" y="62"/>
      <point x="423" y="125" type="qcurve" smooth="yes"/>
      <point x="423" y="283" type="line" smooth="yes"/>
      <point x="423" y="362"/>
      <point x="375" y="432"/>
      <point x="325" y="432" type="qcurve" smooth="yes"/>
      <point x="262" y="432"/>
      <point x="189" y="335"/>
      <point x="189" y="238" type="qcurve" smooth="yes"/>
      <point x="189" y="125" type="line" smooth="yes"/>
      <point x="189" y="61"/>
      <point x="201" y="49" type="qcurve" smooth="yes"/>
      <point x="213" y="36"/>
      <point x="233" y="35" type="qcurve" smooth="yes"/>
      <point x="251" y="34" type="line" smooth="yes"/>
      <point x="259" y="34"/>
      <point x="269" y="24"/>
      <point x="269" y="8"/>
      <point x="259" y="-2"/>
      <point x="251" y="-2" type="qcurve" smooth="yes"/>
      <point x="242" y="-2"/>
      <point x="188" y="0"/>
      <point x="152" y="0" type="qcurve" smooth="yes"/>
      <point x="135" y="0" type="line" smooth="yes"/>
      <point x="99" y="0"/>
      <point x="45" y="-2"/>
      <point x="36" y="-2" type="qcurve" smooth="yes"/>
      <point x="28" y="-2"/>
      <point x="18" y="8"/>
      <point x="18" y="24"/>
      <point x="28" y="34"/>
      <point x="36" y="34" type="qcurve" smooth="yes"/>
      <point x="54" y="35" type="line" smooth="yes"/>
      <point x="72" y="36"/>
      <point x="86" y="49" type="qcurve" smooth="yes"/>
      <point x="99" y="61"/>
      <point x="99" y="125" type="qcurve" smooth="yes"/>
      <point x="99" y="359" type="line" smooth="yes"/>
      <point x="99" y="381"/>
      <point x="67" y="413"/>
      <point x="40" y="413" type="qcurve" smooth="yes"/>
      <point x="31" y="413"/>
      <point x="23" y="423"/>
      <point x="23" y="439"/>
      <point x="31" y="448"/>
      <point x="38" y="449" type="qcurve" smooth="yes"/>
      <point x="76" y="454"/>
      <point x="115" y="468" type="qcurve" smooth="yes"/>
      <point x="148" y="480"/>
      <point x="158" y="480" type="qcurve" smooth="yes"/>
      <point x="166" y="480"/>
      <point x="170" y="476" type="qcurve" smooth="yes"/>
      <point x="175" y="471"/>
      <point x="177" y="462" type="qcurve" smooth="yes"/>
      <point x="181" y="445"/>
      <point x="183" y="428" type="qcurve" smooth="yes"/>
      <point x="185" y="410"/>
      <point x="185" y="388" type="qcurve"/>
      <point x="217" y="439"/>
      <point x="309" y="478"/>
      <point x="352" y="478" type="qcurve" smooth="yes"/>
      <point x="416" y="478"/>
      <point x="488" y="440"/>
      <point x="509" y="388" type="qcurve"/>
      <point x="541" y="439"/>
      <point x="632" y="478"/>
      <point x="675" y="478" type="qcurve" smooth="yes"/>
      <point x="761" y="478"/>
      <point x="837" y="406"/>
      <point x="837" y="308" type="qcurve" smooth="yes"/>
      <point x="837" y="125" type="line" smooth="yes"/>
      <point x="837" y="61"/>
      <point x="849" y="49" type="qcurve" smooth="yes"/>
      <point x="861" y="36"/>
      <point x="881" y="35" type="qcurve" smooth="yes"/>
      <point x="899" y="34" type="line" smooth="yes"/>
      <point x="907" y="34"/>
      <point x="917" y="24"/>
      <point x="917" y="8"/>
      <point x="907" y="-2"/>
      <point x="899" y="-2" type="qcurve" smooth="yes"/>
      <point x="890" y="-2"/>
      <point x="836" y="0"/>
      <point x="800" y="0" type="qcurve" smooth="yes"/>
      <point x="783" y="0" type="line" smooth="yes"/>
      <point x="747" y="0"/>
      <point x="693" y="-2"/>
      <point x="684" y="-2" type="qcurve" smooth="yes"/>
      <point x="676" y="-2"/>
      <point x="666" y="8"/>
      <point x="666" y="24"/>
      <point x="676" y="34"/>
      <point x="684" y="34" type="qcurve" smooth="yes"/>
      <point x="702" y="35" type="line" smooth="yes"/>
      <point x="720" y="36"/>
      <point x="734" y="49" type="qcurve" smooth="yes"/>
      <point x="747" y="61"/>
      <point x="747" y="125" type="qcurve" smooth="yes"/>
    </contour>
  </outline>
</glyph>
<glyph name="n" format="2">
  <advance width="584"/>
  <unicode hex="006E"/>
  <outline>
    <contour>
      <point x="167" y="398" type="curve"/>
      <point x="214" y="448"/>
      <point x="252" y="456"/>
      <point x="310" y="456" type="curve" smooth="yes"/>
      <point x="440" y="456"/>
      <point x="492" y="396"/>
      <point x="492" y="304" type="curve" smooth="yes"/>
      <point x="492" y="120" type="line" smooth="yes"/>
      <point x="492" y="60"/>
      <point x="494" y="34"/>
      <point x="534" y="32" type="curve" smooth="yes"/>
      <point x="552" y="31" type="line" smooth="yes"/>
      <point x="562" y="30.4443"/>
      <point x="568" y="24"/>
      <point x="568" y="15" type="curve" smooth="yes"/>
      <point x="568" y="6"/>
      <point x="562" y="-1"/>
      <point x="552" y="-1" type="curve" smooth="yes"/>
      <point x="527" y="-1"/>
      <point x="492" y="0"/>
      <point x="460" y="0" type="curve" smooth="yes"/>
      <point x="444" y="0" type="line" smooth="yes"/>
      <point x="412.344" y="0"/>
      <point x="376.731" y="-1"/>
      <point x="352" y="-1" type="curve" smooth="yes"/>
      <point x="342" y="-1"/>
      <point x="336" y="6"/>
      <point x="336" y="15" type="curve" smooth="yes"/>
      <point x="336" y="24"/>
      <point x="342" y="30.4736"/>
      <point x="352" y="31" type="curve" smooth="yes"/>
      <point x="370" y="32" type="line" smooth="yes"/>
      <point x="409" y="34"/>
      <point x="412" y="60"/>
      <point x="412" y="120" type="curve" smooth="yes"/>
      <point x="412" y="284" type="line" smooth="yes"/>
      <point x="412" y="354"/>
      <point x="380" y="424"/>
      <point x="292" y="424" type="curve" smooth="yes"/>
      <point x="223" y="424"/>
      <point x="172" y="369"/>
      <point x="172" y="290" type="curve" smooth="yes"/>
      <point x="172" y="120" type="line" smooth="yes"/>
      <point x="172" y="60"/>
      <point x="174" y="34"/>
      <point x="214" y="32" type="curve" smooth="yes"/>
      <point x="232" y="31" type="line" smooth="yes"/>
      <point x="242" y="30.4443"/>
      <point x="248" y="24"/>
      <point x="248" y="15" type="curve" smooth="yes"/>
      <point x="248" y="6"/>
      <point x="242" y="-1"/>
      <point x="232" y="-1" type="curve" smooth="yes"/>
      <point x="207" y="-1"/>
      <point x="172" y="0"/>
      <point x="140" y="0" type="curve" smooth="yes"/>
      <point x="124" y="0" type="line" smooth="yes"/>
      <point x="92.3438" y="0"/>
      <point x="56.7314" y="-1"/>
      <point x="32" y="-1" type="curve" smooth="yes"/>
      <point x="22" y="-1"/>
      <point x="16" y="6"/>
      <point x="16" y="15" type="curve" smooth="yes"/>
      <point x="16" y="24"/>
      <point x="22" y="30.4736"/>
      <point x="32" y="31" type="curve" smooth="yes"/>
      <point x="50" y="32" type="line" smooth="yes"/>
      <point x="89" y="34"/>
      <point x="92" y="60"/>
      <point x="92" y="120" type="curve" smooth="yes"/>
      <point x="92" y="367" type="line" smooth="yes"/>
      <point x="92" y="385"/>
      <point x="79" y="398"/>
      <point x="61" y="399" type="curve" smooth="yes"/>
      <point x="43" y="400" type="line" smooth="yes"/>
      <point x="35" y="400"/>
      <point x="28" y="407"/>
      <point x="28" y="416" type="curve" smooth="yes"/>
      <point x="28" y="425"/>
      <point x="35" y="431"/>
      <point x="43" y="432" type="curve" smooth="yes"/>
      <point x="75" y="435"/>
      <point x="123" y="447"/>
      <point x="140" y="455" type="curve" smooth="yes"/>
      <point x="151" y="460"/>
      <point x="160" y="450"/>
      <point x="162" y="440" type="curve" smooth="yes"/>
      <point x="163" y="435"/>
      <point x="166" y="418"/>
    </contour>
  </outline>
</glyph>
<glyph name="o" format="2">
  <advance width="484"/>
  <unicode hex="006F"/>
  <outline>
    <contour>
      <point x="466" y="224" type="curve" smooth="yes"/>
      <point x="466" y="86.0166"/>
      <point x="373.531" y="-8"/>
      <point x="242" y="-8" type="curve" smooth="yes"/>
      <point x="115.378" y="-8"/>
      <point x="18" y="94.3691"/>
      <point x="18" y="224" type="curve" smooth="yes"/>
      <point x="18" y="354.918"/>
      <point x="120.526" y="456"/>
      <point x="242" y="456" type="curve" smooth="yes"/>
      <point x="358.319" y="456"/>
      <point x="466" y="346.568"/>
    </contour>
    <contour>
      <point x="242" y="424" type="curve" smooth="yes"/>
      <point x="146.8" y="424"/>
      <point x="114" y="324.917"/>
      <point x="114" y="224" type="curve" smooth="yes"/>
      <point x="114" y="121.25"/>
      <point x="145.066" y="24"/>
      <point x="242" y="24" type="curve" smooth="yes"/>
      <point x="338.928" y="24"/>
      <point x="370" y="121.27"/>
      <point x="370" y="224" type="curve" smooth="yes"/>
      <point x="370" y="324.802"/>
      <point x="337.523" y="424"/>
    </contour>
  </outline>
</glyph>
<glyph name="p" format="2">
  <advance width="614"/>
  <unicode hex="0070"/>
  <outline>
    <contour>
      <point x="341" y="478" type="qcurve" smooth="yes"/>
      <point x="434" y="478"/>
      <point x="578" y="340"/>
      <point x="578" y="230" type="qcurve" smooth="yes"/>
      <point x="578" y="130"/>
      <point x="444" y="-18"/>
      <point x="341" y="-18" type="qcurve" smooth="yes"/>
      <point x="302" y="-18"/>
      <point x="238" y="7"/>
      <point x="202" y="46" type="qcurve"/>
      <point x="202" y="-163" type="line" smooth="yes"/>
      <point x="202" y="-227"/>
      <point x="214" y="-239" type="qcurve" smooth="yes"/>
      <point x="226" y="-252"/>
      <point x="246" y="-253" type="qcurve" smooth="yes"/>
      <point x="264" y="-254" type="line" smooth="yes"/>
      <point x="272" y="-254"/>
      <point x="282" y="-264"/>
      <point x="282" y="-280"/>
      <point x="272" y="-290"/>
      <point x="264" y="-290" type="qcurve" smooth="yes"/>
      <point x="255" y="-290"/>
      <point x="201" y="-288"/>
      <point x="165" y="-288" type="qcurve" smooth="yes"/>
      <point x="148" y="-288" type="line" smooth="yes"/>
      <point x="112" y="-288"/>
      <point x="58" y="-290"/>
      <point x="49" y="-290" type="qcurve" smooth="yes"/>
      <point x="41" y="-290"/>
      <point x="31" y="-280"/>
      <point x="31" y="-264"/>
      <point x="41" y="-254"/>
      <point x="49" y="-254" type="qcurve" smooth="yes"/>
      <point x="67" y="-253" type="line" smooth="yes"/>
      <point x="85" y="-252"/>
      <point x="99" y="-239" type="qcurve" smooth="yes"/>
      <point x="112" y="-227"/>
      <point x="112" y="-163" type="qcurve" smooth="yes"/>
      <point x="112" y="359" type="line" smooth="yes"/>
      <point x="112" y="382"/>
      <point x="96" y="397" type="qcurve" smooth="yes"/>
      <point x="80" y="413"/>
      <point x="53" y="413" type="qcurve" smooth="yes"/>
      <point x="44" y="413"/>
      <point x="36" y="423"/>
      <point x="36" y="439"/>
      <point x="44" y="448"/>
      <point x="51" y="449" type="qcurve" smooth="yes"/>
      <point x="89" y="454"/>
      <point x="128" y="468" type="qcurve" smooth="yes"/>
      <point x="161" y="480"/>
      <point x="171" y="480" type="qcurve" smooth="yes"/>
      <point x="179" y="480"/>
      <point x="183" y="476" type="qcurve" smooth="yes"/>
      <point x="188" y="470"/>
      <point x="190" y="462" type="qcurve" smooth="yes"/>
      <point x="195" y="442"/>
      <point x="196" y="422" type="qcurve"/>
      <point x="266" y="478"/>
    </contour>
    <contour>
      <point x="470" y="230" type="qcurve" smooth="yes"/>
      <point x="470" y="329"/>
      <point x="395" y="442"/>
      <point x="336" y="442" type="qcurve" smooth="yes"/>
      <point x="285" y="442"/>
      <point x="202" y="366"/>
      <point x="202" y="305" type="qcurve" smooth="yes"/>
      <point x="202" y="156" type="line" smooth="yes"/>
      <point x="202" y="94"/>
      <point x="284" y="18"/>
      <point x="336" y="18" type="qcurve" smooth="yes"/>
      <point x="396" y="18"/>
      <point x="470" y="132"/>
    </contour>
  </outline>
</glyph>
<glyph name="q" format="2">
  <advance width="448"/>
  <unicode hex="0071"/>
  <outline>
    <contour>
      <point x="112" y="224" type="curve" smooth="yes"/>
      <point x="112" y="124"/>
      <point x="146" y="24"/>
      <point x="232" y="24" type="curve" smooth="yes"/>
      <point x="299" y="24"/>
      <point x="352" y="81"/>
      <point x="352" y="155" type="curve" smooth="yes"/>
      <point x="352" y="300" type="line" smooth="yes"/>
      <point x="352" y="373"/>
      <point x="301" y="424"/>
      <point x="232" y="424" type="curve" smooth="yes"/>
      <point x="144" y="424"/>
      <point x="112" y="324"/>
    </contour>
    <contour>
      <point x="224" y="456" type="curve" smooth="yes"/>
      <point x="275" y="456"/>
      <point x="324" y="436"/>
      <point x="372" y="396" type="curve"/>
      <point x="417" y="450" type="line" smooth="yes"/>
      <point x="421" y="455"/>
      <point x="432" y="453"/>
      <point x="432" y="443" type="curve" smooth="yes"/>
      <point x="432" y="262"/>
      <point x="432" y="-99" type="line" smooth="yes"/>
      <point x="432" y="-159"/>
      <point x="434" y="-185"/>
      <point x="474" y="-187" type="curve" smooth="yes"/>
      <point x="492" y="-188" type="line" smooth="yes"/>
      <point x="501" y="-188"/>
      <point x="508" y="-194"/>
      <point x="508" y="-204" type="curve" smooth="yes"/>
      <point x="508" y="-214"/>
      <point x="501" y="-220"/>
      <point x="492" y="-220" type="curve" smooth="yes"/>
      <point x="467" y="-220"/>
      <point x="432" y="-219"/>
      <point x="400" y="-219" type="curve" smooth="yes"/>
      <point x="384" y="-219" type="line" smooth="yes"/>
      <point x="352" y="-219"/>
      <point x="316" y="-220"/>
      <point x="291" y="-220" type="curve" smooth="yes"/>
      <point x="282" y="-220"/>
      <point x="275" y="-214"/>
      <point x="275" y="-204" type="curve" smooth="yes"/>
      <point x="275" y="-194"/>
      <point x="282" y="-188"/>
      <point x="291" y="-188" type="curve" smooth="yes"/>
      <point x="310" y="-187" type="line" smooth="yes"/>
      <point x="349" y="-185"/>
      <point x="352" y="-159"/>
      <point x="352" y="-99" type="curve" smooth="yes"/>
      <point x="352" y="51" type="line"/>
      <point x="316" y="12"/>
      <point x="287" y="-8"/>
      <point x="224" y="-8" type="curve" smooth="yes"/>
      <point x="101" y="-8"/>
      <point x="16" y="95"/>
      <point x="16" y="224" type="curve" smooth="yes"/>
      <point x="16" y="365"/>
      <point x="98" y="456"/>
    </contour>
  </outline>
</glyph>
<glyph name="r" format="2">
  <advance width="436"/>
  <unicode hex="0072"/>
  <outline>
    <contour>
      <point x="47.291" y="744.201" type="line"/>
      <point x="68.5039" y="765.414" type="line"/>
      <point x="82.6465" y="751.272" type="line"/>
      <point x="61.4326" y="730.06" type="line"/>
      <point x="82.6465" y="708.846" type="line"/>
      <point x="68.5039" y="694.704" type="line"/>
      <point x="47.291" y="715.917" type="line"/>
      <point x="26.0771" y="694.704" type="line"/>
      <point x="11.9355" y="708.846" type="line"/>
      <point x="33.1484" y="730.06" type="line"/>
      <point x="11.9355" y="751.272" type="line"/>
      <point x="26.0771" y="765.414" type="line"/>
    </contour>
    <contour>
      <point x="376" y="365" type="curve" smooth="yes"/>
      <point x="366.667" y="365"/>
      <point x="359" y="367.167"/>
      <point x="353" y="371.5" type="curve" smooth="yes"/>
      <point x="347" y="375.833"/>
      <point x="342" y="382.333"/>
      <point x="338" y="391" type="curve" smooth="yes"/>
      <point x="331.333" y="407.667"/>
      <point x="321.333" y="416"/>
      <point x="308" y="416" type="curve" smooth="yes"/>
      <point x="277.333" y="416"/>
      <point x="250" y="398.333"/>
      <point x="226" y="363" type="curve" smooth="yes"/>
      <point x="206.667" y="334.333"/>
      <point x="197" y="289"/>
      <point x="197" y="227" type="curve" smooth="yes"/>
      <point x="197" y="119" type="line" smooth="yes"/>
      <point x="197" y="78.3333"/>
      <point x="201" y="54.3333"/>
      <point x="209" y="47" type="curve" smooth="yes"/>
      <point x="216.333" y="39"/>
      <point x="226.333" y="34.3333"/>
      <point x="239" y="33" type="curve" smooth="yes"/>
      <point x="256" y="32" type="line" smooth="yes"/>
      <point x="261.333" y="32"/>
      <point x="265.5" y="30.5"/>
      <point x="268.5" y="27.5" type="curve" smooth="yes"/>
      <point x="271.5" y="24.5"/>
      <point x="273" y="20.5"/>
      <point x="273" y="15.5" type="curve" smooth="yes"/>
      <point x="273" y="10.5"/>
      <point x="271.5" y="6.33333"/>
      <point x="268.5" y="3" type="curve" smooth="yes"/>
      <point x="265.5" y="-0.333333"/>
      <point x="261.333" y="-2"/>
      <point x="256" y="-2" type="curve" smooth="yes"/>
      <point x="250" y="-2"/>
      <point x="238.5" y="-1.66667"/>
      <point x="221.5" y="-1" type="curve" smooth="yes"/>
      <point x="204.5" y="-0.333333"/>
      <point x="184.667" y="0"/>
      <point x="162" y="0" type="curve" smooth="yes"/>
      <point x="146" y="0" type="line" smooth="yes"/>
      <point x="123.333" y="0"/>
      <point x="103.333" y="-0.333333"/>
      <point x="86" y="-1" type="curve" smooth="yes"/>
      <point x="68.6667" y="-1.66667"/>
      <point x="57" y="-2"/>
      <point x="51" y="-2" type="curve" smooth="yes"/>
      <point x="45.6667" y="-2"/>
      <point x="41.5" y="-0.333333"/>
      <point x="38.5" y="3" type="curve" smooth="yes"/>
      <point x="35.5" y="6.33333"/>
      <point x="34" y="10.5"/>
      <point x="34" y="15.5" type="curve" smooth="yes"/>
      <point x="34" y="20.5"/>
      <point x="35.6667" y="24.5"/>
      <point x="39" y="27.5" type="curve" smooth="yes"/>
      <point x="42.3333" y="30.5"/>
      <point x="46.3333" y="32"/>
      <point x="51" y="32" type="curve" smooth="yes"/>
      <point x="69" y="33" type="line" smooth="yes"/>
      <point x="80.3333" y="33.6667"/>
      <point x="90.3333" y="38.3333"/>
      <point x="99" y="47" type="curve" smooth="yes"/>
      <point x="107" y="54.3333"/>
      <point x="111" y="78.3333"/>
      <point x="111" y="119" type="curve" smooth="yes"/>
      <point x="111" y="342" type="line" smooth="yes"/>
      <point x="111" y="356"/>
      <point x="106" y="368"/>
      <point x="96" y="378" type="curve" smooth="yes"/>
      <point x="86" y="388"/>
      <point x="72.3333" y="393"/>
      <point x="55" y="393" type="curve" smooth="yes"/>
      <point x="49" y="393"/>
      <point x="44.8333" y="394.667"/>
      <point x="42.5" y="398" type="curve" smooth="yes"/>
      <point x="40.1667" y="401.333"/>
      <point x="39" y="405.333"/>
      <point x="39" y="410" type="curve" smooth="yes"/>
      <point x="39" y="415.333"/>
      <point x="40.3333" y="419.5"/>
      <point x="43" y="422.5" type="curve" smooth="yes"/>
      <point x="45.6667" y="425.5"/>
      <point x="49" y="427.333"/>
      <point x="53" y="428" type="curve" smooth="yes"/>
      <point x="77" y="431.333"/>
      <point x="101.667" y="437.333"/>
      <point x="127" y="446" type="curve" smooth="yes"/>
      <point x="148.333" y="453.333"/>
      <point x="162" y="457"/>
      <point x="168" y="457" type="curve" smooth="yes"/>
      <point x="173.333" y="457"/>
      <point x="177" y="455.667"/>
      <point x="179" y="453" type="curve" smooth="yes"/>
      <point x="182.333" y="449.667"/>
      <point x="184.667" y="445.333"/>
      <point x="186" y="440" type="curve" smooth="yes"/>
      <point x="188.667" y="429.333"/>
      <point x="190.333" y="418.667"/>
      <point x="191" y="408" type="curve" smooth="yes"/>
      <point x="192.333" y="396.667"/>
      <point x="193" y="384"/>
      <point x="193" y="370" type="curve"/>
      <point x="211" y="398.667"/>
      <point x="233.167" y="420"/>
      <point x="259.5" y="434" type="curve" smooth="yes"/>
      <point x="285.833" y="448"/>
      <point x="315.333" y="455"/>
      <point x="348" y="455" type="curve" smooth="yes"/>
      <point x="371.333" y="455"/>
      <point x="389" y="450.167"/>
      <point x="401" y="440.5" type="curve" smooth="yes"/>
      <point x="413" y="430.833"/>
      <point x="419" y="420"/>
      <point x="419" y="408" type="curve" smooth="yes"/>
      <point x="419" y="394"/>
      <point x="415.333" y="383.333"/>
      <point x="408" y="376" type="curve" smooth="yes"/>
      <point x="399.333" y="368.667"/>
      <point x="388.667" y="365"/>
    </contour>
  </outline>
</glyph>
<glyph name="s" format="2">
  <advance width="359"/>
  <unicode hex="0073"/>
  <outline>
    <contour>
      <point x="400.112" y="669.882" type="line"/>
      <point x="418.497" y="651.497" type="line"/>
      <point x="385.97" y="618.97" type="line"/>
      <point x="422.739" y="582.2" type="line"/>
      <point x="405.77" y="565.229" type="line"/>
      <point x="369" y="602" type="line"/>
      <point x="330.815" y="563.815" type="line"/>
      <point x="312.431" y="582.2" type="line"/>
      <point x="350.615" y="620.385" type="line"/>
      <point x="315.26" y="655.739" type="line"/>
      <point x="332.23" y="672.71" type="line"/>
      <point x="367.585" y="637.354" type="line"/>
    </contour>
    <contour>
      <point x="269" y="451" type="qcurve"/>
      <point x="287" y="476" type="line" smooth="yes"/>
      <point x="289" y="479"/>
      <point x="294" y="479" type="qcurve" smooth="yes"/>
      <point x="302" y="479"/>
      <point x="301" y="472" type="qcurve" smooth="yes"/>
      <point x="298" y="443"/>
      <point x="298" y="413" type="qcurve" smooth="yes"/>
      <point x="298" y="383"/>
      <point x="300" y="354" type="qcurve" smooth="yes"/>
      <point x="300" y="348"/>
      <point x="294" y="342"/>
      <point x="289" y="342" type="qcurve" smooth="yes"/>
      <point x="287" y="342"/>
      <point x="281" y="345" type="qcurve" smooth="yes"/>
      <point x="277" y="347"/>
      <point x="275" y="357" type="qcurve" smooth="yes"/>
      <point x="268" y="394"/>
      <point x="241" y="424" type="qcurve" smooth="yes"/>
      <point x="217" y="450"/>
      <point x="169" y="450" type="qcurve" smooth="yes"/>
      <point x="135" y="450"/>
      <point x="94" y="416"/>
      <point x="94" y="389" type="qcurve" smooth="yes"/>
      <point x="94" y="339"/>
      <point x="216" y="282" type="qcurve" smooth="yes"/>
      <point x="341" y="223"/>
      <point x="341" y="130" type="qcurve" smooth="yes"/>
      <point x="341" y="65"/>
      <point x="251" y="-20"/>
      <point x="181" y="-20" type="qcurve" smooth="yes"/>
      <point x="116" y="-20"/>
      <point x="56" y="22" type="qcurve"/>
      <point x="37" y="-6" type="line" smooth="yes"/>
      <point x="34" y="-10"/>
      <point x="29" y="-10" type="qcurve" smooth="yes"/>
      <point x="24" y="-10"/>
      <point x="18" y="-6"/>
      <point x="18" y="0" type="qcurve" smooth="yes"/>
      <point x="20" y="41"/>
      <point x="20" y="71" type="qcurve" smooth="yes"/>
      <point x="20" y="113"/>
      <point x="18" y="135" type="qcurve" smooth="yes"/>
      <point x="17" y="146"/>
      <point x="29" y="148" type="qcurve" smooth="yes"/>
      <point x="40" y="149"/>
      <point x="42" y="139" type="qcurve" smooth="yes"/>
      <point x="52" y="87"/>
      <point x="121" y="10"/>
      <point x="175" y="10" type="qcurve" smooth="yes"/>
      <point x="217" y="10"/>
      <point x="266" y="52"/>
      <point x="266" y="91" type="qcurve" smooth="yes"/>
      <point x="266" y="145"/>
      <point x="155" y="197" type="qcurve" smooth="yes"/>
      <point x="26" y="258"/>
      <point x="26" y="353" type="qcurve" smooth="yes"/>
      <point x="26" y="405"/>
      <point x="97" y="480"/>
      <point x="162" y="480" type="qcurve" smooth="yes"/>
      <point x="219" y="480"/>
    </contour>
  </outline>
</glyph>
<glyph name="t" format="2">
  <advance width="360"/>
  <unicode hex="0074"/>
  <outline>
    <contour>
      <point x="187" y="587" type="qcurve" smooth="yes"/>
      <point x="187" y="460" type="line"/>
      <point x="308" y="460" type="line" smooth="yes"/>
      <point x="317" y="460"/>
      <point x="317" y="451" type="qcurve" smooth="yes"/>
      <point x="317" y="433" type="line" smooth="yes"/>
      <point x="317" y="424"/>
      <point x="308" y="424" type="qcurve" smooth="yes"/>
      <point x="187" y="424" type="line"/>
      <point x="187" y="133" type="line" smooth="yes"/>
      <point x="187" y="68"/>
      <point x="204" y="42" type="qcurve" smooth="yes"/>
      <point x="219" y="18"/>
      <point x="249" y="18" type="qcurve" smooth="yes"/>
      <point x="278" y="18"/>
      <point x="313" y="53" type="qcurve" smooth="yes"/>
      <point x="318" y="58"/>
      <point x="325" y="58" type="qcurve" smooth="yes"/>
      <point x="332" y="58"/>
      <point x="337" y="53" type="qcurve" smooth="yes"/>
      <point x="342" y="48"/>
      <point x="342" y="41" type="qcurve" smooth="yes"/>
      <point x="342" y="34"/>
      <point x="337" y="29" type="qcurve" smooth="yes"/>
      <point x="290" y="-18"/>
      <point x="227" y="-18" type="qcurve" smooth="yes"/>
      <point x="157" y="-18"/>
      <point x="97" y="48"/>
      <point x="97" y="128" type="qcurve" smooth="yes"/>
      <point x="97" y="424" type="line"/>
      <point x="54" y="424" type="line" smooth="yes"/>
      <point x="36" y="424"/>
      <point x="36" y="441" type="qcurve" smooth="yes"/>
      <point x="36" y="457"/>
      <point x="50" y="460" type="qcurve" smooth="yes"/>
      <point x="84.9922" y="468.506"/>
      <point x="115" y="513" type="qcurve" smooth="yes"/>
      <point x="145.008" y="557.494"/>
      <point x="152" y="593" type="qcurve" smooth="yes"/>
      <point x="153" y="598"/>
      <point x="158" y="602" type="qcurve" smooth="yes"/>
      <point x="162" y="605"/>
      <point x="169" y="605" type="qcurve" smooth="yes"/>
      <point x="177" y="605"/>
      <point x="182" y="600" type="qcurve" smooth="yes"/>
      <point x="187" y="595"/>
    </contour>
  </outline>
</glyph>
<glyph name="u" format="2">
  <advance width="571"/>
  <unicode hex="0075"/>
  <outline>
    <contour>
      <point x="47.291" y="744.201" type="line"/>
      <point x="68.5039" y="765.414" type="line"/>
      <point x="82.6465" y="751.272" type="line"/>
      <point x="61.4326" y="730.06" type="line"/>
      <point x="82.6465" y="708.846" type="line"/>
      <point x="68.5039" y="694.704" type="line"/>
      <point x="47.291" y="715.917" type="line"/>
      <point x="26.0771" y="694.704" type="line"/>
      <point x="11.9355" y="708.846" type="line"/>
      <point x="33.1484" y="730.06" type="line"/>
      <point x="11.9355" y="751.272" type="line"/>
      <point x="26.0771" y="765.414" type="line"/>
    </contour>
    <contour>
      <point x="480" y="128" type="line" smooth="yes"/>
      <point x="480" y="94.6667"/>
      <point x="484.667" y="73.5"/>
      <point x="494" y="64.5" type="curve" smooth="yes"/>
      <point x="503.333" y="55.5"/>
      <point x="517.667" y="51"/>
      <point x="537" y="51" type="curve" smooth="yes"/>
      <point x="542.333" y="51"/>
      <point x="546.5" y="49.5"/>
      <point x="549.5" y="46.5" type="curve" smooth="yes"/>
      <point x="552.5" y="43.5"/>
      <point x="554" y="39.3333"/>
      <point x="554" y="34" type="curve" smooth="yes"/>
      <point x="554" y="29.3333"/>
      <point x="552.667" y="25.6667"/>
      <point x="550" y="23" type="curve" smooth="yes"/>
      <point x="548" y="19.6667"/>
      <point x="545" y="17.6667"/>
      <point x="541" y="17" type="curve" smooth="yes"/>
      <point x="520.333" y="13.6667"/>
      <point x="500.333" y="9.66667"/>
      <point x="481" y="5" type="curve" smooth="yes"/>
      <point x="462.333" y="-0.333333"/>
      <point x="448" y="-4.83333"/>
      <point x="438" y="-8.5" type="curve" smooth="yes"/>
      <point x="428" y="-12.1667"/>
      <point x="422" y="-14"/>
      <point x="420" y="-14" type="curve" smooth="yes"/>
      <point x="414" y="-14"/>
      <point x="410.333" y="-11.3333"/>
      <point x="409" y="-6" type="curve" smooth="yes"/>
      <point x="406.333" y="2.66667"/>
      <point x="404" y="13.1667"/>
      <point x="402" y="25.5" type="curve" smooth="yes"/>
      <point x="400" y="37.8333"/>
      <point x="398.667" y="52.6667"/>
      <point x="398" y="70" type="curve"/>
      <point x="378" y="40.6667"/>
      <point x="356.167" y="18.8333"/>
      <point x="332.5" y="4.5" type="curve" smooth="yes"/>
      <point x="308.833" y="-9.83333"/>
      <point x="278.333" y="-17"/>
      <point x="241" y="-17" type="curve" smooth="yes"/>
      <point x="193.667" y="-17"/>
      <point x="156.667" y="-5"/>
      <point x="130" y="19" type="curve" smooth="yes"/>
      <point x="103.333" y="43"/>
      <point x="90" y="85.3333"/>
      <point x="90" y="146" type="curve" smooth="yes"/>
      <point x="90" y="331" type="line" smooth="yes"/>
      <point x="90" y="356.333"/>
      <point x="85.3333" y="374.667"/>
      <point x="76" y="386" type="curve" smooth="yes"/>
      <point x="66.6667" y="397.333"/>
      <point x="53" y="404"/>
      <point x="35" y="406" type="curve" smooth="yes"/>
      <point x="29.6667" y="406.667"/>
      <point x="25.3333" y="408.167"/>
      <point x="22" y="410.5" type="curve" smooth="yes"/>
      <point x="18.6667" y="412.833"/>
      <point x="17" y="416.833"/>
      <point x="17" y="422.5" type="curve" smooth="yes"/>
      <point x="17" y="428.167"/>
      <point x="19" y="432.5"/>
      <point x="23" y="435.5" type="curve" smooth="yes"/>
      <point x="27" y="438.5"/>
      <point x="31" y="440"/>
      <point x="35" y="440" type="curve" smooth="yes"/>
      <point x="37.6667" y="440"/>
      <point x="44.6667" y="439.667"/>
      <point x="56" y="439" type="curve" smooth="yes"/>
      <point x="67.3333" y="438.333"/>
      <point x="80.6667" y="438"/>
      <point x="96" y="438" type="curve" smooth="yes"/>
      <point x="111.333" y="438"/>
      <point x="125.167" y="438.667"/>
      <point x="137.5" y="440" type="curve" smooth="yes"/>
      <point x="149.833" y="441.333"/>
      <point x="157.333" y="442"/>
      <point x="160" y="442" type="curve" smooth="yes"/>
      <point x="164.667" y="442"/>
      <point x="168.5" y="440.333"/>
      <point x="171.5" y="437" type="curve" smooth="yes"/>
      <point x="174.5" y="433.667"/>
      <point x="176" y="430"/>
      <point x="176" y="426" type="curve" smooth="yes"/>
      <point x="176" y="171" type="line" smooth="yes"/>
      <point x="176" y="120.333"/>
      <point x="183.167" y="82"/>
      <point x="197.5" y="56" type="curve" smooth="yes"/>
      <point x="211.833" y="30"/>
      <point x="233.333" y="17"/>
      <point x="262" y="17" type="curve" smooth="yes"/>
      <point x="295.333" y="17"/>
      <point x="325.667" y="32.5"/>
      <point x="353" y="63.5" type="curve" smooth="yes"/>
      <point x="380.333" y="94.5"/>
      <point x="394" y="140.333"/>
      <point x="394" y="201" type="curve" smooth="yes"/>
      <point x="394" y="331" type="line" smooth="yes"/>
      <point x="394" y="356.333"/>
      <point x="389.333" y="374.667"/>
      <point x="380" y="386" type="curve" smooth="yes"/>
      <point x="370.667" y="397.333"/>
      <point x="357" y="404"/>
      <point x="339" y="406" type="curve" smooth="yes"/>
      <point x="333.667" y="406.667"/>
      <point x="329.333" y="408.167"/>
      <point x="326" y="410.5" type="curve" smooth="yes"/>
      <point x="322.667" y="412.833"/>
      <point x="321" y="416.833"/>
      <point x="321" y="422.5" type="curve" smooth="yes"/>
      <point x="321" y="428.167"/>
      <point x="322.833" y="432.5"/>
      <point x="326.5" y="435.5" type="curve" smooth="yes"/>
      <point x="330.167" y="438.5"/>
      <point x="334.333" y="440"/>
      <point x="339" y="440" type="curve" smooth="yes"/>
      <point x="341.667" y="440"/>
      <point x="348.667" y="439.667"/>
      <point x="360" y="439" type="curve" smooth="yes"/>
      <point x="371.333" y="438.333"/>
      <point x="384.667" y="438"/>
      <point x="400" y="438" type="curve" smooth="yes"/>
      <point x="415.333" y="438"/>
      <point x="429.167" y="438.667"/>
      <point x="441.5" y="440" type="curve" smooth="yes"/>
      <point x="453.833" y="441.333"/>
      <point x="461.333" y="442"/>
      <point x="464" y="442" type="curve" smooth="yes"/>
      <point x="468.667" y="442"/>
      <point x="472.5" y="440.333"/>
      <point x="475.5" y="437" type="curve" smooth="yes"/>
      <point x="478.5" y="433.667"/>
      <point x="480" y="430"/>
      <point x="480" y="426" type="curve" smooth="yes"/>
    </contour>
  </outline>
</glyph>
<glyph name="v" format="2">
  <advance width="566"/>
  <unicode hex="0076"/>
  <outline>
    <contour>
      <point x="54" y="425" type="qcurve" smooth="yes"/>
      <point x="36" y="426" type="line" smooth="yes"/>
      <point x="28" y="426"/>
      <point x="23" y="431" type="qcurve" smooth="yes"/>
      <point x="18" y="436"/>
      <point x="18" y="444" type="qcurve" smooth="yes"/>
      <point x="18" y="452"/>
      <point x="23" y="457" type="qcurve" smooth="yes"/>
      <point x="28" y="462"/>
      <point x="36" y="462" type="qcurve" smooth="yes"/>
      <point x="45" y="462"/>
      <point x="72" y="461" type="qcurve" smooth="yes"/>
      <point x="99" y="460"/>
      <point x="135" y="460" type="qcurve" smooth="yes"/>
      <point x="171" y="460"/>
      <point x="198" y="461" type="qcurve" smooth="yes"/>
      <point x="225" y="462"/>
      <point x="234" y="462" type="qcurve" smooth="yes"/>
      <point x="242" y="462"/>
      <point x="247" y="457" type="qcurve" smooth="yes"/>
      <point x="252" y="452"/>
      <point x="252" y="444" type="qcurve" smooth="yes"/>
      <point x="252" y="436"/>
      <point x="247" y="431" type="qcurve" smooth="yes"/>
      <point x="242.471" y="426.471"/>
      <point x="234" y="426" type="qcurve" smooth="yes"/>
      <point x="216" y="425" type="line" smooth="yes"/>
      <point x="197" y="424"/>
      <point x="193" y="410" type="qcurve" smooth="yes"/>
      <point x="192.034" y="406.137"/>
      <point x="195" y="399" type="qcurve" smooth="yes"/>
      <point x="318" y="103" type="line"/>
      <point x="442" y="401" type="line" smooth="yes"/>
      <point x="452" y="424"/>
      <point x="434" y="425" type="qcurve" smooth="yes"/>
      <point x="416" y="426" type="line" smooth="yes"/>
      <point x="408" y="426"/>
      <point x="403" y="431" type="qcurve" smooth="yes"/>
      <point x="398" y="436"/>
      <point x="398" y="444" type="qcurve" smooth="yes"/>
      <point x="398" y="452"/>
      <point x="403" y="457" type="qcurve" smooth="yes"/>
      <point x="408" y="462"/>
      <point x="416" y="462" type="qcurve" smooth="yes"/>
      <point x="420" y="462"/>
      <point x="449" y="460"/>
      <point x="473" y="460" type="qcurve" smooth="yes"/>
      <point x="494" y="460"/>
      <point x="527" y="462"/>
      <point x="530" y="462" type="qcurve" smooth="yes"/>
      <point x="538" y="462"/>
      <point x="543" y="457" type="qcurve" smooth="yes"/>
      <point x="548" y="452"/>
      <point x="548" y="444" type="qcurve" smooth="yes"/>
      <point x="548" y="436"/>
      <point x="542" y="431" type="qcurve" smooth="yes"/>
      <point x="537.438" y="426.438"/>
      <point x="530" y="426" type="qcurve" smooth="yes"/>
      <point x="513" y="425" type="line" smooth="yes"/>
      <point x="490.901" y="423.995"/>
      <point x="478" y="393" type="qcurve" smooth="yes"/>
      <point x="314" y="-1" type="line" smooth="yes"/>
      <point x="307" y="-18"/>
      <point x="289" y="-18" type="qcurve" smooth="yes"/>
      <point x="271.076" y="-18"/>
      <point x="264" y="-1" type="qcurve" smooth="yes"/>
      <point x="100" y="393" type="line" smooth="yes"/>
      <point x="87" y="423"/>
    </contour>
  </outline>
</glyph>
<glyph name="w" format="2">
  <advance width="785"/>
  <unicode hex="0077"/>
  <outline>
    <contour>
      <point x="54" y="425" type="qcurve" smooth="yes"/>
      <point x="36" y="426" type="line" smooth="yes"/>
      <point x="28" y="426"/>
      <point x="18" y="436"/>
      <point x="18" y="452"/>
      <point x="28" y="462"/>
      <point x="36" y="462" type="qcurve" smooth="yes"/>
      <point x="45" y="462"/>
      <point x="99" y="460"/>
      <point x="171" y="460"/>
      <point x="225" y="462"/>
      <point x="234" y="462" type="qcurve" smooth="yes"/>
      <point x="242" y="462"/>
      <point x="252" y="452"/>
      <point x="252" y="436"/>
      <point x="242" y="426"/>
      <point x="234" y="426" type="qcurve" smooth="yes"/>
      <point x="216" y="425" type="line" smooth="yes"/>
      <point x="196" y="424"/>
      <point x="193" y="410" type="qcurve" smooth="yes"/>
      <point x="192" y="406"/>
      <point x="195" y="397" type="qcurve" smooth="yes"/>
      <point x="297" y="116" type="line"/>
      <point x="415" y="442" type="line" smooth="yes"/>
      <point x="418" y="451"/>
      <point x="436" y="451"/>
      <point x="439" y="442" type="qcurve" smooth="yes"/>
      <point x="558" y="116" type="line"/>
      <point x="661" y="401" type="line" smooth="yes"/>
      <point x="669" y="424"/>
      <point x="653" y="425" type="qcurve" smooth="yes"/>
      <point x="635" y="426" type="line" smooth="yes"/>
      <point x="627" y="426"/>
      <point x="617" y="436"/>
      <point x="617" y="452"/>
      <point x="627" y="462"/>
      <point x="635" y="462" type="qcurve" smooth="yes"/>
      <point x="639" y="462"/>
      <point x="671" y="460"/>
      <point x="716" y="460"/>
      <point x="746" y="462"/>
      <point x="749" y="462" type="qcurve" smooth="yes"/>
      <point x="757" y="462"/>
      <point x="767" y="452"/>
      <point x="767" y="436"/>
      <point x="755" y="426"/>
      <point x="749" y="426" type="qcurve" smooth="yes"/>
      <point x="732" y="425" type="line" smooth="yes"/>
      <point x="708" y="424"/>
      <point x="697" y="393" type="qcurve" smooth="yes"/>
      <point x="553" y="-1" type="line" smooth="yes"/>
      <point x="547" y="-18"/>
      <point x="511" y="-18"/>
      <point x="505" y="-1" type="qcurve" smooth="yes"/>
      <point x="399" y="291" type="line"/>
      <point x="292" y="-1" type="line" smooth="yes"/>
      <point x="286" y="-18"/>
      <point x="269" y="-18" type="qcurve" smooth="yes"/>
      <point x="250" y="-18"/>
      <point x="244" y="-1" type="qcurve" smooth="yes"/>
      <point x="100" y="393" type="line" smooth="yes"/>
      <point x="89" y="423"/>
    </contour>
  </outline>
</glyph>
<glyph name="x" format="2">
  <advance width="590"/>
  <unicode hex="0078"/>
  <outline>
    <contour>
      <point x="216" y="395" type="qcurve" smooth="yes"/>
      <point x="308" y="284" type="line"/>
      <point x="406" y="401" type="line" smooth="yes"/>
      <point x="410" y="406"/>
      <point x="410" y="412" type="qcurve" smooth="yes"/>
      <point x="410" y="423"/>
      <point x="396" y="424" type="qcurve" smooth="yes"/>
      <point x="366" y="426" type="line" smooth="yes"/>
      <point x="357" y="427"/>
      <point x="353" y="431" type="qcurve" smooth="yes"/>
      <point x="348" y="436"/>
      <point x="348" y="452"/>
      <point x="358" y="462"/>
      <point x="366" y="462" type="qcurve" smooth="yes"/>
      <point x="370" y="462"/>
      <point x="417" y="460"/>
      <point x="441" y="460" type="qcurve" smooth="yes"/>
      <point x="462" y="460"/>
      <point x="516" y="462"/>
      <point x="519" y="462" type="qcurve" smooth="yes"/>
      <point x="527" y="462"/>
      <point x="537" y="452"/>
      <point x="537" y="436"/>
      <point x="531" y="431" type="qcurve" smooth="yes"/>
      <point x="527" y="427"/>
      <point x="519" y="426" type="qcurve" smooth="yes"/>
      <point x="491" y="424" type="line" smooth="yes"/>
      <point x="471" y="423"/>
      <point x="452" y="400" type="qcurve" smooth="yes"/>
      <point x="332" y="256" type="line"/>
      <point x="499" y="57" type="line" smooth="yes"/>
      <point x="516" y="36"/>
      <point x="536" y="35" type="qcurve" smooth="yes"/>
      <point x="554" y="34" type="line" smooth="yes"/>
      <point x="562" y="34"/>
      <point x="572" y="24"/>
      <point x="572" y="8"/>
      <point x="562" y="-2"/>
      <point x="554" y="-2" type="qcurve" smooth="yes"/>
      <point x="545" y="-2"/>
      <point x="491" y="0"/>
      <point x="419" y="0"/>
      <point x="355" y="-2"/>
      <point x="346" y="-2" type="qcurve" smooth="yes"/>
      <point x="338" y="-2"/>
      <point x="328" y="8"/>
      <point x="328" y="24"/>
      <point x="338" y="34"/>
      <point x="346" y="34" type="qcurve" smooth="yes"/>
      <point x="374" y="35" type="line" smooth="yes"/>
      <point x="385" y="35"/>
      <point x="385" y="46" type="qcurve" smooth="yes"/>
      <point x="385" y="53"/>
      <point x="375" y="65" type="qcurve" smooth="yes"/>
      <point x="273" y="186" type="line"/>
      <point x="166" y="59" type="line" smooth="yes"/>
      <point x="162" y="54"/>
      <point x="162" y="47" type="qcurve" smooth="yes"/>
      <point x="162" y="37"/>
      <point x="176" y="36" type="qcurve" smooth="yes"/>
      <point x="211" y="34" type="line" smooth="yes"/>
      <point x="219" y="34"/>
      <point x="229" y="24"/>
      <point x="229" y="8"/>
      <point x="219" y="-2"/>
      <point x="211" y="-2" type="qcurve" smooth="yes"/>
      <point x="207" y="-2"/>
      <point x="146" y="0"/>
      <point x="122" y="0" type="qcurve" smooth="yes"/>
      <point x="101" y="0"/>
      <point x="46" y="-2"/>
      <point x="43" y="-2" type="qcurve" smooth="yes"/>
      <point x="35" y="-2"/>
      <point x="25" y="8"/>
      <point x="25" y="24"/>
      <point x="31" y="29" type="qcurve" smooth="yes"/>
      <point x="36" y="33"/>
      <point x="43" y="34" type="qcurve" smooth="yes"/>
      <point x="75" y="37" type="line" smooth="yes"/>
      <point x="103" y="40"/>
      <point x="126" y="67" type="qcurve" smooth="yes"/>
      <point x="249" y="214" type="line"/>
      <point x="91" y="403" type="line" smooth="yes"/>
      <point x="73" y="424"/>
      <point x="54" y="425" type="qcurve" smooth="yes"/>
      <point x="36" y="426" type="line" smooth="yes"/>
      <point x="28" y="426"/>
      <point x="18" y="436"/>
      <point x="18" y="452"/>
      <point x="28" y="462"/>
      <point x="36" y="462" type="qcurve" smooth="yes"/>
      <point x="45" y="462"/>
      <point x="99" y="460"/>
      <point x="171" y="460"/>
      <point x="235" y="462"/>
      <point x="244" y="462" type="qcurve" smooth="yes"/>
      <point x="252" y="462"/>
      <point x="262" y="452"/>
      <point x="262" y="436"/>
      <point x="252" y="426"/>
      <point x="244" y="426" type="qcurve" smooth="yes"/>
      <point x="216" y="425" type="line" smooth="yes"/>
      <point x="205" y="425"/>
      <point x="205" y="414" type="qcurve" smooth="yes"/>
      <point x="205" y="408"/>
    </contour>
  </outline>
</glyph>
<glyph name="y" format="2">
  <advance width="566"/>
  <unicode hex="0079"/>
  <outline>
    <contour>
      <point x="109" y="-255" type="qcurve" smooth="yes"/>
      <point x="109" y="-240"/>
      <point x="119" y="-230" type="qcurve" smooth="yes"/>
      <point x="135" y="-214"/>
      <point x="163" y="-203" type="qcurve" smooth="yes"/>
      <point x="195" y="-191"/>
      <point x="220" y="-131" type="qcurve" smooth="yes"/>
      <point x="269.092" y="-14" type="line"/>
      <point x="100" y="393" type="line" smooth="yes"/>
      <point x="87.5498" y="422.967"/>
      <point x="54" y="425" type="qcurve" smooth="yes"/>
      <point x="36" y="426" type="line" smooth="yes"/>
      <point x="27.5293" y="426.471"/>
      <point x="18" y="436"/>
      <point x="18" y="452"/>
      <point x="28" y="462"/>
      <point x="36" y="462" type="qcurve" smooth="yes"/>
      <point x="45" y="462"/>
      <point x="99" y="460"/>
      <point x="171" y="460"/>
      <point x="225" y="462"/>
      <point x="234" y="462" type="qcurve" smooth="yes"/>
      <point x="242" y="462"/>
      <point x="252" y="452"/>
      <point x="252" y="436"/>
      <point x="242" y="426"/>
      <point x="234" y="426" type="qcurve" smooth="yes"/>
      <point x="216" y="425" type="line" smooth="yes"/>
      <point x="196.983" y="423.943"/>
      <point x="193" y="410" type="qcurve" smooth="yes"/>
      <point x="192.034" y="406.137"/>
      <point x="195" y="399" type="qcurve" smooth="yes"/>
      <point x="318" y="103" type="line"/>
      <point x="442" y="401" type="line" smooth="yes"/>
      <point x="451.58" y="424.023"/>
      <point x="434" y="425" type="qcurve" smooth="yes"/>
      <point x="416" y="426" type="line" smooth="yes"/>
      <point x="407.529" y="426.471"/>
      <point x="398" y="436"/>
      <point x="398" y="452"/>
      <point x="408" y="462"/>
      <point x="416" y="462" type="qcurve" smooth="yes"/>
      <point x="420" y="462"/>
      <point x="452" y="460"/>
      <point x="497" y="460"/>
      <point x="527" y="462"/>
      <point x="530" y="462" type="qcurve" smooth="yes"/>
      <point x="538" y="462"/>
      <point x="548" y="452"/>
      <point x="548" y="436"/>
      <point x="542.228" y="431.189" type="qcurve" smooth="yes"/>
      <point x="536" y="426"/>
      <point x="530" y="426" type="qcurve" smooth="yes"/>
      <point x="513" y="425" type="line" smooth="yes"/>
      <point x="490.789" y="423.693"/>
      <point x="478" y="393" type="qcurve" smooth="yes"/>
      <point x="223" y="-219" type="line" smooth="yes"/>
      <point x="193.417" y="-290"/>
      <point x="144" y="-290" type="qcurve" smooth="yes"/>
      <point x="129" y="-290"/>
      <point x="119" y="-280" type="qcurve" smooth="yes"/>
      <point x="109" y="-270"/>
    </contour>
  </outline>
</glyph>
<glyph name="z" format="2">
  <advance width="465"/>
  <unicode hex="007A"/>
  <outline>
    <contour>
      <point x="86" y="460" type="qcurve" smooth="yes"/>
      <point x="408" y="460" type="line" smooth="yes"/>
      <point x="419" y="460"/>
      <point x="419" y="450" type="qcurve" smooth="yes"/>
      <point x="419" y="447"/>
      <point x="416" y="442" type="qcurve" smooth="yes"/>
      <point x="158" y="36" type="line"/>
      <point x="296" y="39" type="line" smooth="yes"/>
      <point x="350" y="40"/>
      <point x="395" y="108" type="qcurve" smooth="yes"/>
      <point x="407" y="126"/>
      <point x="414" y="126" type="qcurve" smooth="yes"/>
      <point x="431" y="126"/>
      <point x="429" y="108" type="qcurve" smooth="yes"/>
      <point x="419" y="18" type="line" smooth="yes"/>
      <point x="417" y="0"/>
      <point x="399" y="0" type="qcurve" smooth="yes"/>
      <point x="47" y="0" type="line" smooth="yes"/>
      <point x="36" y="0"/>
      <point x="36" y="10" type="qcurve" smooth="yes"/>
      <point x="36" y="13"/>
      <point x="39" y="18" type="qcurve" smooth="yes"/>
      <point x="301" y="424" type="line"/>
      <point x="164" y="422" type="line" smooth="yes"/>
      <point x="112" y="421"/>
      <point x="92" y="362" type="qcurve" smooth="yes"/>
      <point x="86" y="344"/>
      <point x="74" y="344" type="qcurve" smooth="yes"/>
      <point x="57" y="344"/>
      <point x="59" y="362" type="qcurve" smooth="yes"/>
      <point x="66" y="442" type="line" smooth="yes"/>
      <point x="68" y="460"/>
    </contour>
  </outline>
</glyph>
